<svg width="40" height="41" viewBox="0 0 40 41" fill="none" xmlns="http://www.w3.org/2000/svg">
<path fill-rule="evenodd" clip-rule="evenodd" d="M24.7244 0.616651C23.1232 1.00405 21.8448 2.31795 21.5039 3.92638C21.4133 4.35368 21.3942 6.23749 21.393 14.864L21.3917 25.2854L20.9272 25.6008C19.3804 26.6513 18.2263 28.2849 17.7398 30.1125C17.4721 31.118 17.4366 32.8468 17.662 33.8967C18.3359 37.0354 20.6275 39.4916 23.6213 40.2841C24.3016 40.4643 24.5668 40.4923 25.6553 40.4993C26.621 40.5054 27.0482 40.4741 27.5252 40.3624C29.1884 39.9725 30.3926 39.2875 31.5799 38.0558C34.277 35.258 34.7281 30.9036 32.6436 27.7872C32.0918 26.9624 31.4136 26.2544 30.5954 25.6493L29.9993 25.2085L29.9787 14.5126L29.958 3.81678L29.7821 3.35044C29.0064 1.29398 26.8167 0.110417 24.7244 0.616651ZM26.4745 2.18049C27.294 2.42387 27.9849 3.05653 28.2734 3.82773C28.4305 4.24744 28.4326 4.39131 28.4369 14.9873C28.4402 23.0919 28.4642 25.7874 28.5347 25.9903C28.6085 26.2027 28.7511 26.3328 29.2148 26.6105C29.9207 27.0333 31.0972 28.1896 31.4722 28.829C32.0871 29.8778 32.3635 30.916 32.3632 32.1756C32.3628 33.9659 31.7338 35.6017 30.5535 36.8824C29.3681 38.1685 27.8755 38.8616 26.0856 38.957C21.8692 39.1819 18.4598 35.3991 19.1275 31.2368C19.2451 30.5037 19.6001 29.5261 19.9826 28.8823C20.4289 28.1311 21.2792 27.2536 22.072 26.7261C22.4306 26.4875 22.7762 26.2177 22.8401 26.1264C22.9415 25.9816 22.9563 24.594 22.9563 15.2281C22.9563 5.00926 22.9632 4.47345 23.1009 4.03113C23.5574 2.56422 25.0358 1.75327 26.4745 2.18049ZM10.322 2.94826C8.44519 3.26321 6.92781 4.06837 5.62088 5.44282C2.57103 8.65014 2.57103 13.5344 5.62088 16.7418C7.3404 18.5501 9.68484 19.4793 12.1068 19.3124C15.6641 19.0675 18.6404 16.5917 19.571 13.1033C19.7489 12.4366 19.7735 12.1913 19.7735 11.0923C19.7735 9.99329 19.7489 9.74796 19.571 9.08127C18.6143 5.49531 15.5378 3.01154 11.8866 2.87761C11.3012 2.85618 10.7122 2.88278 10.322 2.94826ZM13.1774 4.6048C13.786 4.75978 14.8202 5.22776 15.3423 5.58449C16.6202 6.45771 17.6296 7.89067 18.0403 9.41454C18.2702 10.2678 18.2908 11.8342 18.0823 12.6178C17.5272 14.7042 16.2337 16.2695 14.3387 17.1482C13.3148 17.623 12.7596 17.7383 11.5345 17.7307C10.6303 17.725 10.3795 17.6943 9.79022 17.5172C7.84015 16.9308 6.38989 15.7068 5.55321 13.9408C5.09258 12.9686 4.93988 12.2592 4.93988 11.0923C4.93988 10.2944 4.97633 9.94041 5.10917 9.44943C5.82272 6.81241 7.93707 4.90482 10.6204 4.47697C11.2017 4.38435 12.5824 4.45335 13.1774 4.6048ZM32.0135 4.52328C31.5667 4.77034 31.4956 5.36646 31.8686 5.73947L32.0973 5.96814H33.9066C35.9012 5.96814 36.0754 5.93395 36.2519 5.50759C36.3771 5.20538 36.2983 4.86203 36.0499 4.62851C35.8548 4.44513 35.828 4.44239 34.0394 4.42401C32.5457 4.40868 32.1892 4.4262 32.0135 4.52328ZM9.52626 6.0822C9.22726 6.21222 9.10937 6.41124 9.10937 6.78612C9.10937 7.01323 9.27436 7.31364 9.97421 8.36061C10.7739 9.557 10.8372 9.67904 10.8152 9.98218C10.7918 10.304 10.7857 10.3104 10.4784 10.333C10.1955 10.3537 10.0416 10.2745 8.87147 9.50536C8.15972 9.03754 7.49413 8.63301 7.39227 8.60641C6.86695 8.46896 6.35023 9.06813 6.52844 9.60816C6.59775 9.81805 6.78308 9.98398 7.45157 10.4344C7.91157 10.7445 8.31837 11.0252 8.35553 11.0581C8.39277 11.091 8.01609 11.388 7.51846 11.718C6.78653 12.2033 6.59736 12.3677 6.52782 12.5785C6.33967 13.1484 6.87813 13.7253 7.44625 13.5624C7.57439 13.5257 8.21135 13.1397 8.86177 12.7046C9.96905 11.9641 10.0694 11.9137 10.4374 11.9137H10.8305V12.2284C10.8305 12.4986 10.7091 12.7245 9.96991 13.8304C9.25159 14.905 9.10937 15.1669 9.10937 15.415C9.10937 15.9777 9.56045 16.3121 10.0856 16.1387C10.3195 16.0615 10.4607 15.9052 10.9219 15.2119C11.2272 14.7533 11.5007 14.3512 11.53 14.3185C11.5593 14.2858 11.856 14.6634 12.1893 15.1577C12.7158 15.9383 12.8344 16.0681 13.0911 16.145C13.4838 16.2627 13.8464 16.0846 14.0096 15.6941C14.1683 15.3145 14.116 15.1947 13.1845 13.8019C12.4744 12.7401 12.3951 12.586 12.3951 12.2676V11.9137H12.7671C13.1086 11.9137 13.2382 11.9798 14.3513 12.7217C15.0179 13.1661 15.6482 13.5515 15.7518 13.5782C16.0256 13.6486 16.4338 13.4488 16.5753 13.1754C16.8468 12.6503 16.6784 12.3904 15.6079 11.6825C15.1317 11.3677 14.742 11.1021 14.742 11.0923C14.742 11.0825 15.1317 10.8169 15.6079 10.502C16.6784 9.79419 16.8468 9.53431 16.5753 9.00914C16.4337 8.73533 16.025 8.53584 15.7518 8.60711C15.6482 8.6341 14.9892 9.03707 14.2873 9.50263C13.2063 10.2196 12.964 10.3491 12.7031 10.3491H12.3951V9.95605C12.3951 9.58813 12.4455 9.48768 13.1845 8.38267C14.116 6.98992 14.1683 6.87007 14.0096 6.49049C13.8472 6.10168 13.4835 5.92198 13.0948 6.03847C12.843 6.11388 12.7194 6.2493 12.1933 7.02598C11.8579 7.52103 11.5596 7.8992 11.5302 7.86634C11.5009 7.83348 11.2278 7.43224 10.9234 6.97482C10.4959 6.33238 10.3128 6.12311 10.1191 6.0556C9.81525 5.9496 9.83277 5.94881 9.52626 6.0822ZM32.0777 7.65222C31.7568 7.81956 31.6453 7.99597 31.6425 8.34066C31.6406 8.56925 31.694 8.69411 31.8686 8.86872L32.0973 9.09739H33.1622C34.3791 9.09739 34.5548 9.03527 34.699 8.55384C34.8139 8.17035 34.6352 7.80157 34.2581 7.64393C33.8818 7.48676 32.384 7.49247 32.0777 7.65222ZM25.2763 10.0466C24.9064 10.2615 24.9121 10.1226 24.9121 18.9544C24.9121 25.5264 24.8917 27.2574 24.8143 27.2779C23.58 27.6065 22.8584 27.9893 22.1343 28.6997C21.5681 29.2553 21.1514 29.9304 20.8628 30.7599C20.6831 31.2763 20.6562 31.4773 20.6578 32.293C20.6593 33.0972 20.6895 33.3223 20.8683 33.8637C21.5179 35.8303 23.2788 37.2121 25.3559 37.3853C27.3497 37.5516 29.376 36.388 30.2733 34.5617C30.6478 33.7996 30.7851 33.2017 30.7876 32.3239C30.7916 30.8569 30.3433 29.7773 29.2959 28.732C28.4779 27.9158 27.7872 27.5337 26.6918 27.2916L26.4767 27.2441V18.8417V10.4393L26.2742 10.1986C26.1068 9.99971 26.0151 9.95832 25.7461 9.96028C25.567 9.96161 25.3557 10.0004 25.2763 10.0466ZM31.8425 10.981C31.5506 11.3279 31.5649 11.7342 31.8797 12.036L32.1193 12.2658L33.7768 12.2902C35.711 12.3187 35.9741 12.269 36.2091 11.8305C36.3869 11.4989 36.3388 11.2074 36.0604 10.9291L35.8716 10.7402H33.9583H32.0451L31.8425 10.981ZM31.8686 14.0982C31.4578 14.509 31.6063 15.1497 32.1611 15.3607C32.4688 15.4777 33.9515 15.451 34.2581 15.323C34.6352 15.1653 34.8139 14.7965 34.699 14.413C34.5548 13.9316 34.3791 13.8695 33.1622 13.8695H32.0973L31.8686 14.0982ZM31.8686 17.2274C31.6085 17.4875 31.5565 17.94 31.7542 18.2223C31.9758 18.5386 32.2229 18.5731 34.0855 18.548C35.8221 18.5246 35.8555 18.5211 36.0499 18.3384C36.1585 18.2362 36.2694 18.053 36.2961 17.9313C36.3594 17.6432 36.1511 17.204 35.8961 17.0879C35.768 17.0294 35.0796 16.9987 33.899 16.9987H32.0973L31.8686 17.2274ZM26.671 28.9041C27.209 29.0421 27.7434 29.3617 28.1991 29.8182C30.2331 31.8558 29.1079 35.299 26.2476 35.7895C25.194 35.9701 24.0191 35.582 23.2293 34.7921C21.9092 33.472 21.8461 31.3059 23.0891 29.9765C24.0827 28.914 25.2946 28.5511 26.671 28.9041Z" fill="#003154"/>
</svg>
