<svg width="180" height="48" viewBox="0 0 180 48" fill="none" xmlns="http://www.w3.org/2000/svg">
<g clip-path="url(#clip0_1526_2793)">
<path fill-rule="evenodd" clip-rule="evenodd" d="M24.4844 21.9185L28.2128 13H21.5519C18.2425 13.0442 14.3884 13.1766 10.8694 14.457C2.70048 17.4151 0.731553 22.4041 0.228848 24.4351C-0.650887 28.1437 1.06669 32.0732 4.33428 33.7951C7.22483 35.2962 10.5343 35.1196 12.7965 34.7222C15.7708 34.1924 18.1587 33.1328 19.8763 31.5875C19.8828 31.5807 19.9106 31.5556 19.9533 31.5172C20.1848 31.3088 20.8528 30.7074 20.9236 30.4837L21.2587 29.2034C18.7871 30.1747 16.6925 30.6604 14.7654 30.7487C13.4668 30.7928 11.037 30.6604 9.69647 28.9826C7.55997 26.3777 9.44511 22.4924 11.1208 20.6381C13.0059 18.563 16.5668 17.106 20.5465 16.7087L18.3681 21.9185H24.4844ZM80.7035 23.4196C79.6562 23.1106 78.5251 23.1105 77.4359 23.1105H75.3413L73.8332 26.6868H77.1427C76.5143 28.9385 75.3413 30.263 73.4562 30.7487C71.6967 31.1902 70.1467 31.0135 70.1467 31.0135L76.4724 15.2075H70.0629C70.0629 15.2075 64.8264 28.0554 64.2399 29.689C63.1088 32.8237 65.748 34.4132 68.3872 34.5898C68.6795 34.6083 68.9254 34.6242 69.1368 34.6378L69.1391 34.638C70.4408 34.7222 70.4409 34.7222 71.9899 34.7222C78.0643 34.7222 83.4684 30.3513 83.5103 26.8192C83.5522 25.0973 82.4211 23.9053 80.7035 23.4196ZM103.66 27.04C103.577 26.157 103.242 25.3181 102.655 24.6559C101.985 23.8611 100.644 22.9781 98.1307 22.9781H96.3712C96.1097 22.9781 95.8555 22.9775 95.6081 22.977C92.8442 22.9705 90.9311 22.966 89.1239 23.817C86.4847 25.0532 84.1806 27.3932 84.4739 30.7045C84.5996 31.9849 85.3117 33.177 86.359 33.8393C87.4482 34.5015 88.8726 34.8106 90.0874 34.8106H91.9307C92.1935 34.8106 92.4474 34.8112 92.6933 34.8117C95.4265 34.8182 97.1656 34.8223 99.0104 33.9717C100.602 33.2211 102.152 32.0732 102.99 30.3955C103.535 29.38 103.786 28.1879 103.66 27.04ZM97.0834 29.2917C96.6645 29.954 96.0361 30.4838 95.3658 30.7487C94.3604 31.1902 93.2712 31.2785 92.182 31.2785H90.4645V30.6604C90.4645 29.5566 90.632 29.071 91.0091 28.4528C91.8888 27.1283 93.3131 26.6427 94.7794 26.5102L94.8841 26.4991C95.2619 26.4589 95.6105 26.4219 95.9942 26.4219H97.4604C97.4604 26.4219 97.4604 27.4815 97.4185 27.923C97.5023 28.4528 97.3348 28.8943 97.0834 29.2917ZM129.717 34.634C129.131 34.634 128.586 34.4132 128.042 33.9717C127.497 33.5302 127.288 33.0445 127.288 32.4706C127.288 32.3381 127.33 32.1615 127.371 31.9849C127.497 31.5875 129.005 28.0113 129.005 28.0113L122.093 33.0445C120.417 34.2366 118.993 34.8547 117.82 34.8547C116.731 34.8547 116.019 34.6781 115.6 34.2366C115.348 33.9717 115.223 33.6626 115.223 33.2211C115.223 32.8679 115.307 32.4706 115.516 32.0291L117.234 28.0113L108.646 34.634H103.242L108.017 23.1547H114.385L111.997 28.806L118.113 24.7C119.58 23.6404 121.088 23.1547 123.015 23.1547H125.905C125.78 23.4859 125.418 24.3636 125.192 24.912C125.117 25.0947 125.057 25.2409 125.025 25.3181L123.475 29.0268L129.801 24.6559C131.226 23.5962 132.817 23.0664 134.535 23.0664C135.499 23.0664 137.007 23.1547 137.426 23.1989L132.859 34.634H129.717ZM39.314 34.6339L44.1316 23.1547H35.0829C34.8234 23.1547 34.5691 23.1541 34.32 23.1535L34.3192 23.1535C31.5122 23.1471 29.3506 23.1421 27.5423 23.9936C24.9031 25.2298 22.6409 27.5698 22.9342 30.8811C23.018 31.7641 23.4369 32.6471 23.9815 33.3536C24.8612 34.4573 26.7464 34.943 28.0869 34.9871C30.1396 34.9871 32.8626 34.1924 34.1194 32.5147C33.9518 33.3536 34.4545 34.06 35.041 34.369C35.6425 34.686 36.3451 34.683 37.2701 34.679H37.2707C37.3763 34.6785 37.4848 34.6781 37.5964 34.6781C37.5546 34.6339 39.2302 34.6339 39.314 34.6339ZM34.4545 31.0577C31.2288 32.1173 29.4694 31.4992 29.1342 30.572C28.841 29.8656 29.0923 29.2034 29.4694 28.6294C30.4329 27.2166 31.8572 26.6426 34.4126 26.6426H36.2978L34.4545 31.0577ZM52.3009 27.9671L58.2077 23.1547H64.5334L62.1456 28.9385H56.155L56.9928 26.9517L50.8766 32.1615L49.6617 34.6339H43.2941L47.9441 23.1547H54.2699L52.3009 27.9671ZM159 23.1547L154.182 34.6339C154.099 34.6339 152.381 34.6339 152.465 34.6781C152.353 34.6781 152.244 34.6785 152.138 34.679C151.213 34.683 150.511 34.686 149.909 34.369C149.323 34.06 148.82 33.3536 148.988 32.5147C147.731 34.1924 145.008 34.9871 142.955 34.9871C141.615 34.943 139.73 34.4573 138.85 33.3536C138.305 32.6471 137.886 31.7641 137.802 30.8811C137.509 27.5698 139.771 25.2298 142.411 23.9936C144.219 23.1421 146.38 23.1471 149.187 23.1535C149.437 23.1541 149.691 23.1547 149.951 23.1547H159ZM144.003 30.572C144.338 31.4992 146.097 32.1173 149.323 31.0577L151.166 26.6426H149.281C146.725 26.6426 145.301 27.2166 144.338 28.6294C143.961 29.2034 143.709 29.8656 144.003 30.572Z" fill="#003154"/>
</g>
<defs>
<clipPath id="clip0_1526_2793">
<rect width="159" height="22" fill="white" transform="translate(0 13)"/>
</clipPath>
</defs>
</svg>
