<svg width="180" height="48" viewBox="0 0 180 48" fill="none" xmlns="http://www.w3.org/2000/svg">
<path fill-rule="evenodd" clip-rule="evenodd" d="M25.3707 10H0V33.8838H1.68325L4.50818 16.7855L18.7743 11.7759L23.6338 26.1443L22.3555 33.8838H25.3707V10ZM81.684 15.3961H85.8311C88.6414 15.3961 90.7394 15.9342 92.125 17.0105C93.5155 18.0819 94.2083 19.7208 94.2083 21.9125C94.2083 24.1336 93.5448 25.7431 92.2177 26.7509C90.8906 27.7538 88.7634 28.2577 85.8311 28.2577H81.684V15.3961ZM68.1497 28.3898L70.272 33.2478C75.1228 33.2478 79.9736 33.2517 84.8252 33.2555H84.8278H84.8304H84.833H84.8355H84.8376H84.8396H84.8416H84.8436C90.9118 33.2604 96.9814 33.2652 103.054 33.2625L105.167 28.6344H117.559L119.579 33.2625H126.912L115.754 10.4403H108.055L100.732 24.5396C100.868 23.7569 100.932 22.9301 100.932 22.0642C100.932 19.7746 100.488 17.7688 99.5996 16.0419C98.7116 14.3149 97.4431 12.9891 95.7891 12.0547C94.7255 11.4578 93.5302 11.0273 92.1884 10.7631C90.8467 10.499 89.0561 10.3669 86.8167 10.3669H75.2876V28.473L66.3493 10.1956H58.6503L51.4391 24.0798C51.1171 23.3851 50.6244 22.8665 49.9608 22.5289C49.1558 22.118 47.9751 21.9027 46.404 21.8832C48.4922 21.5309 50.0486 20.8754 51.083 19.9116C52.1222 18.9478 52.6394 17.6807 52.6394 16.0957C52.6394 15.034 52.3857 14.085 51.8782 13.2582C51.3757 12.4314 50.6536 11.7905 49.7266 11.3355C49.0143 10.9882 48.1849 10.7436 47.2335 10.5919C46.2869 10.4403 44.8964 10.3669 43.0717 10.3669H30.6205V33.2478H36.9144V24.5152H40.7542C42.7448 24.5152 43.9987 24.706 44.5207 25.0876C45.0428 25.4741 45.3941 26.2862 45.5795 27.5239L46.0137 30.562L46.0345 30.7353C46.1319 31.5519 46.2497 32.5404 46.6138 33.2478H53.5273L55.7522 28.3898H68.1497ZM115.471 24.2314H107.289L111.582 15.4597L115.471 24.2314ZM66.0663 23.9819H57.8843L62.1778 15.2102L66.0663 23.9819ZM36.9144 20.1317V14.7943L40.9542 14.7894C42.9692 14.7894 44.3012 14.9802 44.9599 15.3618C45.6185 15.7483 45.9503 16.4283 45.9503 17.397C45.9503 18.4048 45.5941 19.1093 44.8818 19.5153C44.1695 19.9263 42.8619 20.1317 40.9542 20.1317H36.9144ZM77.9027 39.0011C77.7466 39.1674 77.6637 39.4218 77.6637 39.7447C77.6637 39.9893 77.7222 40.322 77.893 40.5176C77.971 40.6155 78.1516 40.7623 78.4785 40.7623C78.6639 40.7623 78.82 40.7182 78.9566 40.5959C79.2396 40.3415 79.2493 39.9159 79.2493 39.7251C79.2493 39.4952 79.2152 39.2016 79.0249 38.9913C78.859 38.8103 78.6687 38.776 78.4833 38.776C78.3126 38.7809 78.0881 38.8005 77.9027 39.0011ZM79.5762 37.7389C79.2981 37.871 79.103 37.915 78.6004 37.9982L78.5906 37.9999C78.4508 38.024 78.2797 38.0535 78.1272 38.1205C77.9906 38.1841 77.8686 38.2819 77.7808 38.3944C77.6637 38.5412 77.5661 38.776 77.5368 39.0157H77.5466C77.7759 38.5118 78.2394 38.4238 78.5712 38.4238C78.8054 38.4238 79.0883 38.4629 79.3372 38.6977C79.5226 38.869 79.7128 39.187 79.7128 39.7202C79.7128 40.1067 79.6055 40.4638 79.4103 40.7035C79.2201 40.9384 78.9176 41.1145 78.4345 41.1145C78.2004 41.1145 77.8881 41.0607 77.6149 40.7867C77.2489 40.4149 77.1953 39.867 77.1953 39.5049C77.1953 38.6195 77.449 38.2134 77.6246 38.0226C77.9174 37.7095 78.3028 37.6361 78.5956 37.5823C78.6939 37.5633 78.7796 37.547 78.8554 37.5326C79.2273 37.4622 79.3606 37.4369 79.5713 37.3475V37.7389H79.5762ZM6.26954 38.9375C6.34761 39.0696 6.39151 39.2653 6.39639 39.4316V39.4365H4.91806C4.92294 39.2457 4.99125 39.0451 5.10347 38.9033C5.22544 38.7516 5.43035 38.6244 5.69382 38.6244C6.01583 38.6244 6.1866 38.8005 6.26954 38.9375ZM6.37688 40.914C6.60131 40.7525 6.7428 40.5569 6.81599 40.322L6.42079 40.2389C6.38664 40.3367 6.32809 40.4492 6.25491 40.5275C6.16221 40.6351 5.98656 40.7623 5.69382 40.7623C5.36205 40.7623 5.1181 40.6107 4.98637 40.2878C4.92294 40.1312 4.89366 39.9404 4.89854 39.7594H6.86478V39.6616C6.86478 39.2262 6.70377 38.2869 5.69382 38.2869C4.84 38.2869 4.43504 38.9962 4.43504 39.7203C4.43504 40.1019 4.52286 40.4443 4.76193 40.7183C4.99612 40.9874 5.29862 41.1146 5.67918 41.1146C5.94265 41.1146 6.16221 41.0559 6.37688 40.914ZM2.30772 38.6782V38.3455H0.204879V38.6782H1.05383V41.0607H1.45878V38.6782H2.30772ZM9.55789 38.3455L10.1238 39.2848L10.7142 38.3455H11.1192L10.3336 39.5735L11.2607 41.0607H10.7728L10.0946 39.9648L9.38713 41.0607H8.98217L9.88478 39.6615L9.06999 38.3455H9.55789ZM14.027 39.4805V38.3455H13.6221V41.0607H14.027V39.8132H15.2809V41.0607H15.6859V38.3455H15.2809V39.4805H14.027ZM20.2136 39.7056C20.2136 38.8152 19.7842 38.644 19.4573 38.644C19.1353 38.644 18.7011 38.8152 18.7011 39.7056C18.7011 40.596 19.1304 40.7672 19.4573 40.7672C19.7842 40.7624 20.2136 40.596 20.2136 39.7056ZM19.4573 38.2918C20.1599 38.2918 20.6771 38.8152 20.6771 39.7007C20.6771 40.5911 20.155 41.1097 19.4573 41.1097C18.7548 41.1097 18.2376 40.5862 18.2376 39.7007C18.2376 38.8152 18.7596 38.2918 19.4573 38.2918ZM25.0829 41.0607V38.3455V38.3406H23.4533L23.4484 38.6439C23.4191 40.0089 23.3606 40.2779 23.2825 40.4198C23.1801 40.6057 22.9947 40.6987 22.8727 40.7036H22.8288V41.0558H22.8483C23.0337 41.0558 23.4533 41.0167 23.6338 40.4883C23.7168 40.2486 23.7607 39.8866 23.8046 38.6733H24.6779V41.0607H25.0829ZM29.6105 39.7056C29.6105 38.8152 29.1812 38.644 28.8543 38.644C28.5323 38.644 28.0981 38.8152 28.0981 39.7056C28.0981 40.596 28.5274 40.7672 28.8543 40.7672C29.1812 40.7624 29.6105 40.596 29.6105 39.7056ZM28.8592 38.2918C29.5618 38.2918 30.0789 38.8152 30.0789 39.7007C30.0789 40.5911 29.5569 41.1097 28.8592 41.1097C28.1566 41.1097 27.6394 40.5862 27.6394 39.7007C27.6346 38.8152 28.1566 38.2918 28.8592 38.2918ZM34.2699 38.6782V38.3455H32.6306V41.0607H33.0355V38.6782H34.2699ZM37.0705 38.3455V39.9746C37.0705 40.0958 37.0682 40.1336 37.0635 40.2092C37.0615 40.2434 37.0589 40.2854 37.0558 40.3464C37.1287 40.1787 37.2054 40.0715 37.2792 39.9683L37.3096 39.9257L38.3244 38.5803V38.3455H38.7293V41.0607H38.3244V39.456C38.3244 39.3582 38.3293 39.1968 38.3439 39.0696C38.3244 39.1185 38.2853 39.2065 38.0999 39.4463L37.0705 40.7965V41.0558H36.6655V38.3406H37.0705V38.3455ZM41.7641 39.094V38.3455H41.3592V39.0304C41.3592 39.3386 41.3592 39.642 41.5982 39.8181C41.7885 39.9551 42.0617 39.9551 42.2374 39.9551C42.4813 39.9551 42.6326 39.9404 42.8863 39.911V41.0558H43.2913V38.3406H42.8863V39.5881C42.7253 39.6077 42.4862 39.6273 42.3008 39.6273C42.1154 39.6273 41.9349 39.6273 41.8373 39.5099C41.7576 39.409 41.7609 39.2611 41.7633 39.147V39.1469C41.7637 39.1283 41.7641 39.1105 41.7641 39.094ZM47.8092 39.4316C47.8043 39.2653 47.7604 39.0696 47.6823 38.9375C47.5994 38.8005 47.4286 38.6244 47.1115 38.6244C46.848 38.6244 46.6431 38.7516 46.5211 38.9033C46.4089 39.0451 46.3406 39.2457 46.3357 39.4365H47.8092V39.4316ZM48.2288 40.322C48.1556 40.5569 48.0141 40.7525 47.7896 40.914C47.575 41.0559 47.3554 41.1146 47.0919 41.1146C46.7114 41.1146 46.4089 40.9874 46.1747 40.7183C45.9356 40.4443 45.8478 40.1019 45.8478 39.7203C45.8478 38.9962 46.2528 38.2869 47.1066 38.2869C48.1165 38.2869 48.2775 39.2262 48.2775 39.6616V39.7594H46.3113C46.3064 39.9404 46.3357 40.1312 46.3991 40.2878C46.5309 40.6107 46.7748 40.7623 47.1066 40.7623C47.3993 40.7623 47.575 40.6351 47.6677 40.5275C47.7409 40.4492 47.7994 40.3367 47.8336 40.2389L48.2288 40.322ZM52.2441 38.8837C52.3124 38.9865 52.371 39.143 52.3905 39.2947L52.7808 39.2311C52.7467 39.0354 52.6588 38.7859 52.5027 38.6098C52.3124 38.3945 52.0636 38.3016 51.766 38.3016C51.3318 38.3016 51.0585 38.4875 50.8731 38.7419C50.6682 39.0256 50.5902 39.3534 50.5902 39.7154C50.5902 40.1753 50.7316 40.6107 50.9951 40.8553C51.1512 40.9972 51.3952 41.1195 51.7367 41.1195C52.0295 41.1195 52.2783 41.0265 52.4686 40.8308C52.6198 40.6694 52.7369 40.4297 52.776 40.1704L52.3954 40.1019C52.3759 40.2535 52.3173 40.4199 52.2197 40.5422C52.0978 40.6987 51.9465 40.7672 51.7465 40.7672C51.4781 40.7672 51.3171 40.6254 51.2293 40.4933C51.1952 40.4492 51.0537 40.2291 51.0537 39.7154C51.0537 39.4953 51.0829 39.1871 51.2293 38.9473C51.3464 38.7565 51.5172 38.644 51.7514 38.644C52.0148 38.644 52.1709 38.7761 52.2441 38.8837ZM56.04 39.4805C56.3962 39.4805 56.5767 39.4071 56.6938 38.9032C56.6984 38.8843 56.7028 38.8648 56.7074 38.845C56.737 38.7156 56.7702 38.5702 56.8548 38.4727C56.9719 38.3357 57.1427 38.3308 57.2256 38.3308C57.2655 38.3308 57.3014 38.3349 57.3405 38.3393L57.3406 38.3393L57.3525 38.3406V38.6586C57.3359 38.6553 57.3148 38.6565 57.2953 38.6576C57.2861 38.6581 57.2773 38.6586 57.2695 38.6586C57.211 38.6635 57.1476 38.6733 57.0988 38.7369C57.053 38.7919 57.0287 38.9159 57.0178 38.9714L57.0158 38.9815L56.9768 39.1723C56.9182 39.4707 56.7475 39.6028 56.567 39.6322V39.6419C56.8255 39.6615 56.928 39.8376 56.9914 40.0088C57.0395 40.142 57.0747 40.2611 57.1045 40.3622L57.1046 40.3622C57.1383 40.4766 57.1653 40.5678 57.1964 40.6302C57.2451 40.728 57.2939 40.7427 57.3964 40.7427C57.4305 40.7427 57.4598 40.7427 57.494 40.7378V41.0607C57.4354 41.0705 57.3769 41.0705 57.3183 41.0705C56.8945 41.0705 56.8379 40.8887 56.7401 40.5753L56.7328 40.5519C56.7063 40.4685 56.6849 40.3995 56.6669 40.3415C56.612 40.1648 56.5891 40.0911 56.5523 40.0284C56.445 39.8425 56.2889 39.7985 56.0693 39.7985H55.6741V41.0509H55.2691V38.3357H55.6741V39.4707H56.04V39.4805ZM60.9141 38.644C61.241 38.644 61.6703 38.8152 61.6703 39.7056C61.6703 40.596 61.241 40.7624 60.9141 40.7672C60.5872 40.7672 60.1578 40.596 60.1578 39.7056C60.1578 38.8152 60.5921 38.644 60.9141 38.644ZM62.1387 39.7007C62.1387 38.8152 61.6215 38.2918 60.9189 38.2918C60.2164 38.2918 59.6992 38.8152 59.6992 39.7007C59.6992 40.5862 60.2164 41.1097 60.9189 41.1097C61.6166 41.1097 62.1387 40.5911 62.1387 39.7007ZM66.442 39.4316C66.4371 39.2653 66.3932 39.0696 66.3151 38.9375C66.2322 38.8005 66.0614 38.6244 65.7443 38.6244C65.4808 38.6244 65.2759 38.7516 65.1539 38.9033C65.0417 39.0451 64.9734 39.2457 64.9685 39.4365H66.442V39.4316ZM66.8616 40.322C66.7884 40.5569 66.6469 40.7525 66.4225 40.914C66.2078 41.0559 65.9882 41.1146 65.7248 41.1146C65.3442 41.1146 65.0417 40.9874 64.8075 40.7183C64.5684 40.4443 64.4806 40.1019 64.4806 39.7203C64.4806 38.9962 64.8856 38.2869 65.7394 38.2869C66.7493 38.2869 66.9104 39.2262 66.9104 39.6616V39.7594H64.9441C64.9392 39.9404 64.9685 40.1312 65.032 40.2878C65.1637 40.6107 65.4076 40.7623 65.7394 40.7623C66.0321 40.7623 66.2078 40.6351 66.3005 40.5275C66.3737 40.4492 66.4322 40.3367 66.4664 40.2389L66.8616 40.322ZM73.5848 38.644C73.9117 38.644 74.341 38.8152 74.341 39.7056C74.341 40.596 73.9117 40.7624 73.5848 40.7672C73.2628 40.7672 72.8335 40.596 72.8335 39.7056C72.8335 38.8152 73.2628 38.644 73.5848 38.644ZM74.8094 39.7007C74.8094 38.8152 74.2923 38.2918 73.5897 38.2918C72.8871 38.2918 72.3651 38.8152 72.3699 39.7007C72.3699 40.5862 72.8871 41.1097 73.5897 41.1097C74.2874 41.1097 74.8094 40.5911 74.8094 39.7007ZM83.2696 38.644C83.5965 38.644 84.0259 38.8152 84.0259 39.7056C84.0259 40.596 83.5965 40.7624 83.2696 40.7672C82.9476 40.7672 82.5183 40.596 82.5183 39.7056C82.5183 38.8152 82.9476 38.644 83.2696 38.644ZM84.4943 39.7007C84.4943 38.8152 83.9771 38.2918 83.2745 38.2918C82.5719 38.2918 82.0499 38.8152 82.0548 39.7007C82.0548 40.5862 82.5719 41.1097 83.2745 41.1097C83.9722 41.1097 84.4943 40.5911 84.4943 39.7007ZM87.4509 39.9894C87.4509 40.1263 87.4704 40.3465 87.6412 40.5373C87.7924 40.7036 87.9876 40.7672 88.1583 40.7672C88.3145 40.7672 88.534 40.7036 88.6901 40.4492C88.817 40.2389 88.856 39.9453 88.856 39.7007C88.856 39.2457 88.7438 39.0305 88.695 38.9571C88.5487 38.7125 88.3291 38.6538 88.1632 38.6538C87.9729 38.6538 87.8119 38.7223 87.6753 38.8691C87.4802 39.0794 87.4509 39.2996 87.4509 39.4268V39.9894ZM87.0459 41.9463V38.3456H87.4167V38.8544L87.4216 38.8495C87.5289 38.5951 87.7826 38.2918 88.2266 38.2918C88.5633 38.2918 88.8072 38.4141 88.9731 38.6049C89.2073 38.8642 89.3147 39.2947 89.3147 39.6861C89.3147 40.0481 89.2268 40.4443 89.0268 40.7085C88.8853 40.9042 88.6316 41.1146 88.2266 41.1146C87.7973 41.1146 87.5729 40.8846 87.4606 40.6351H87.446V41.9463H87.0459ZM92.408 41.8043C92.5641 41.6575 92.6373 41.4863 92.6958 41.32L93.7643 38.3504H93.3935L92.6666 40.4394L91.964 38.3504H91.4956L92.447 41.0167L92.4129 41.1047C92.3299 41.3542 92.2616 41.4961 92.1592 41.5793C92.0567 41.6673 91.9542 41.6722 91.8567 41.6722C91.7493 41.6722 91.6761 41.6624 91.5639 41.6331V41.9462C91.6713 41.9853 91.7981 42 91.9054 42C92.1104 42 92.2665 41.9364 92.408 41.8043ZM96.6478 38.8201C96.6332 39.2212 96.5844 39.8817 96.4087 40.3464C96.3551 40.4834 96.2721 40.6644 96.238 40.728H97.4821V38.6733H96.6527L96.6478 38.8201ZM97.8871 38.3504V40.7329H98.1652V41.7945H97.7944V41.0656H95.994V41.7945H95.6232V40.7329H95.8233C95.916 40.6008 96.0038 40.4394 96.077 40.2486C96.2721 39.7496 96.2965 39.2163 96.3112 38.595L96.316 38.3504H97.8871ZM101.639 38.644C101.966 38.644 102.395 38.8152 102.395 39.7056C102.39 40.596 101.961 40.7624 101.639 40.7672C101.317 40.7672 100.888 40.596 100.888 39.7056C100.888 38.8152 101.317 38.644 101.639 38.644ZM102.859 39.7007C102.859 38.8152 102.342 38.2918 101.639 38.2918C100.936 38.2918 100.419 38.8152 100.419 39.7007C100.419 40.5862 100.936 41.1097 101.639 41.1097C102.337 41.1097 102.859 40.5911 102.859 39.7007ZM105.82 40.7329H106.669C106.864 40.7329 107.011 40.6791 107.094 40.6008C107.177 40.5225 107.221 40.3954 107.221 40.273C107.221 40.0823 107.118 39.9746 107.055 39.9257C106.923 39.823 106.733 39.8132 106.63 39.8132H105.82V40.7329ZM105.825 39.4805H106.577C106.703 39.4805 106.869 39.4707 106.986 39.3435C107.055 39.2701 107.094 39.1576 107.094 39.0353C107.094 38.9521 107.074 38.8543 106.977 38.776C106.864 38.6782 106.738 38.6782 106.616 38.6782H105.825V39.4805ZM106.616 38.3455C106.835 38.3455 107.064 38.3553 107.245 38.4629C107.347 38.5216 107.533 38.6684 107.533 38.9864C107.533 39.1674 107.479 39.3239 107.352 39.4414C107.308 39.4805 107.191 39.5783 107.001 39.6126V39.6224C107.196 39.6371 107.396 39.7251 107.504 39.8376C107.557 39.8914 107.684 40.0382 107.684 40.3024C107.684 40.5519 107.577 40.7672 107.401 40.9041C107.196 41.0656 106.962 41.0705 106.742 41.0705H105.41V38.3553H106.616V38.3455ZM110.821 39.8475C110.972 39.7692 111.216 39.7154 111.641 39.7154H111.982V39.8475C111.982 40.0383 111.904 40.2878 111.768 40.459C111.621 40.6351 111.387 40.7623 111.124 40.7623C110.938 40.7623 110.811 40.7134 110.738 40.6596C110.587 40.5569 110.543 40.4052 110.543 40.2976C110.543 40.1606 110.597 39.9649 110.821 39.8475ZM111.324 38.2967C110.733 38.2967 110.294 38.4532 110.177 39.0354L110.563 39.099C110.626 38.6587 111.094 38.6244 111.319 38.6244C111.509 38.6244 111.743 38.6342 111.88 38.8201C111.978 38.9473 111.987 39.1283 111.987 39.2702V39.3827H111.636C111.226 39.3827 110.797 39.3876 110.47 39.6127C110.309 39.7154 110.104 39.9307 110.104 40.2976C110.104 40.5813 110.231 40.7672 110.348 40.8749C110.48 40.9972 110.694 41.1146 111.041 41.1146C111.68 41.1146 111.914 40.7134 111.987 40.5569C111.992 40.689 112.007 40.8651 112.036 41.0608H112.461C112.407 40.8259 112.392 40.64 112.392 40.4933V39.4512C112.392 39.099 112.387 38.7272 112.095 38.4923C111.856 38.3015 111.504 38.2967 111.324 38.2967ZM115.525 38.3455V39.4805H116.778V38.3455H117.179V41.0607H116.778V39.8132H115.525V41.0607H115.12V38.3455H115.525ZM120.355 39.9746V38.3455V38.3406H119.95V41.0558H120.355V40.7965L121.384 39.4463C121.57 39.2065 121.609 39.1185 121.628 39.0696C121.614 39.1968 121.609 39.3582 121.609 39.456V41.0607H122.014V38.3455H121.609V38.5803L120.594 39.9257L120.564 39.9683C120.49 40.0715 120.413 40.1788 120.34 40.3464C120.343 40.2854 120.346 40.2434 120.348 40.2092C120.353 40.1336 120.355 40.0958 120.355 39.9746ZM126.532 39.4316C126.527 39.2653 126.483 39.0696 126.405 38.9375C126.322 38.8005 126.151 38.6244 125.829 38.6244C125.566 38.6244 125.361 38.7516 125.239 38.9033C125.126 39.0451 125.058 39.2457 125.053 39.4365H126.532V39.4316ZM126.951 40.322C126.878 40.5569 126.737 40.7525 126.512 40.914C126.302 41.0559 126.078 41.1146 125.814 41.1146C125.434 41.1146 125.131 40.9874 124.897 40.7183C124.658 40.4443 124.57 40.1019 124.57 39.7203C124.57 38.9962 124.975 38.2869 125.829 38.2869C126.839 38.2869 127 39.2262 127 39.6616V39.7594H125.034C125.029 39.9404 125.058 40.1312 125.122 40.2878C125.253 40.6107 125.497 40.7623 125.829 40.7623C126.122 40.7623 126.297 40.6351 126.39 40.5275C126.463 40.4492 126.522 40.3367 126.556 40.2389L126.951 40.322ZM3.63482 33.8838L5.83036 20.5965L8.76264 29.0454L7.96248 33.8838H3.63482ZM17.1057 28.4045L16.1982 33.8838H20.4039L21.5651 26.8488L17.1057 28.4045ZM9.91901 33.8839L10.4411 30.7284L15.0322 29.1286L14.2467 33.8839H9.91901Z" fill="#003154"/>
</svg>
