<svg width="180" height="48" viewBox="0 0 180 48" fill="none" xmlns="http://www.w3.org/2000/svg">
<path fill-rule="evenodd" clip-rule="evenodd" d="M2.83605 36.1219H5.30456V19.8274H9.84277V17.5523H5.30717V17.1784C5.30717 13.3414 8.60981 13.2751 9.34489 13.2751H9.84537V11H9.34489C5.2394 11 2.83605 13.5456 2.83605 17.1784V17.5523H0V19.8274H2.83605V36.1219ZM12.1471 36.1219H14.6156V25.1228C14.6156 21.3548 17.4516 19.7929 19.7872 19.6577V17.1466C17.5507 17.0776 15.5488 18.2338 14.5478 20.2358H14.48V17.5549H12.1444V36.1219H12.1471ZM30.0001 17.1095C24.5939 17.1095 20.4545 21.3203 20.4545 26.8517C20.4545 32.3857 24.6252 36.5621 30.0001 36.5621C35.3724 36.5621 39.5457 32.3857 39.5457 26.8517C39.5457 21.3203 35.4063 17.1095 30.0001 17.1095ZM30.0001 19.3846C34.1056 19.3846 37.0746 22.6435 37.0746 26.8543C37.0746 31.0626 34.1056 34.2896 30.0001 34.2896C25.8946 34.2896 22.9256 31.0652 22.9256 26.8543C22.9256 22.6435 25.8972 19.3846 30.0001 19.3846ZM41.6493 30.6568C41.6493 33.746 43.4192 36.5648 47.2223 36.5648C50.9603 36.5648 53.0951 34.0536 53.0951 30.6568C53.0951 27.1593 50.525 26.21 48.3562 25.4967C46.6541 24.9531 44.7851 24.2743 44.7851 22.137C44.7851 20.5752 45.7861 19.3872 47.5221 19.3872C49.0574 19.3872 50.1913 20.5089 50.1574 22.1715H52.6259C52.6598 19.3209 50.5901 17.1121 47.5873 17.1121C44.2846 17.1121 42.314 19.4217 42.314 22.3412C42.314 25.8706 45.1839 26.8915 47.0868 27.5358C48.8228 28.1457 50.624 28.7927 50.624 31.0652C50.624 32.7278 49.524 34.2896 47.4204 34.2896C45.2178 34.2896 43.9484 32.5581 44.1178 30.6568H41.6493ZM58.0661 36.1219H60.5346V19.8274H64.773V17.5523H60.5346V11H58.0661V17.5523H54.2629V19.8274H58.0661V36.1219ZM85.4646 27.7374C85.4985 22.9511 82.9961 17.1121 76.0859 17.1121C69.8794 17.1121 66.5741 22.2723 66.5741 26.8544C66.5741 32.4229 70.7135 36.5648 76.0859 36.5648C80.2252 36.5648 83.5618 34.0855 85.0293 30.0814H82.4591C81.3252 32.627 78.9558 34.2923 76.0859 34.2923C72.2488 34.2923 69.4441 31.4417 69.1443 27.74H85.4646V27.7374ZM69.1469 25.4622C69.7464 21.9328 72.5851 19.3846 76.0885 19.3846C79.2582 19.3846 82.0968 21.6942 82.7954 25.4622H69.1469ZM104.154 30.6887C102.854 33.0301 100.518 34.287 98.0131 34.287C94.0432 34.287 90.7379 31.0281 90.7379 26.7854C90.7379 22.678 93.7747 19.3846 98.0131 19.3846C98.8472 19.3846 102.319 19.5198 104.154 23.1871H106.925C105.489 19.5198 102.254 17.1095 98.0157 17.1095C91.6424 17.1095 88.272 22.3704 88.272 26.8199C88.272 31.6751 91.7754 36.5621 98.0157 36.5621C103.021 36.5621 105.658 33.4385 106.891 30.6887H104.154ZM119.406 17.1095C114 17.1095 109.86 21.3203 109.86 26.8517C109.86 30.6012 111.775 33.7275 114.682 35.3539C114.331 35.4925 113.969 35.6163 113.596 35.7269C118.489 37.5194 123.313 37.6493 127.317 34.6158C132.197 29.5909 132.236 22.7549 127.382 18.9736C127.26 18.9047 127.137 18.8463 127.015 18.7959C127.38 19.3979 127.693 20.029 127.946 20.6839C129.309 24.2159 128.915 28.4082 125.349 32.0384C125.288 31.9776 125.466 31.6824 125.755 31.201C126.804 29.4568 129.322 25.2688 127.291 20.9358C127.044 20.2941 126.733 19.6763 126.371 19.0903C126.272 18.9312 126.168 18.7721 126.061 18.6156C125.701 18.6215 125.348 18.7117 125.004 18.8774C123.448 17.7575 121.524 17.1095 119.406 17.1095ZM125.901 20.8775H126.291L126.426 21.2673C126.053 22.2192 124.526 24.3379 122.654 25.4728C123.332 24.6879 124.022 23.8686 124.625 23.0254C125.117 22.3364 125.558 21.621 125.901 20.8775ZM123.238 20.4944C122.155 19.7883 120.851 19.3846 119.406 19.3846C115.301 19.3846 112.332 22.6435 112.332 26.8544C112.332 30.254 114.267 33.0107 117.173 33.9466C118.869 32.6114 120.113 30.6154 120.772 27.6287C121.174 24.6794 122.075 22.1236 123.238 20.4944ZM129.843 23.8474C129.622 23.6432 129.28 23.3064 129.077 23.0492L129.126 23.8898C129.164 23.9064 129.198 23.9217 129.231 23.936C129.642 24.1188 129.658 24.1258 130.216 24.1603C130.127 24.0867 130.083 24.053 130.051 24.0284C129.999 23.9882 129.979 23.9723 129.843 23.8474ZM130.324 26.2664C129.987 25.9611 129.541 25.5579 129.324 25.1308L129.171 25.8573C129.598 26.1384 129.859 26.2843 130.44 26.4407C130.451 26.4442 130.456 26.4313 130.462 26.4183C130.465 26.4118 130.468 26.4053 130.471 26.4009C130.426 26.3586 130.376 26.3137 130.324 26.2664ZM129.437 27.6207C129.218 27.3635 129.033 27.093 128.884 26.8119L128.665 27.443C129.241 28.0238 129.515 28.1855 130.216 28.3685C129.921 28.1325 129.661 27.8832 129.437 27.6207ZM125.133 30.7771C125.329 30.5657 125.501 30.3798 125.657 30.2432L125.941 29.0632C125.574 29.5788 124.556 30.5995 123.974 31.1838C123.882 31.2756 123.802 31.3566 123.736 31.4232C123.251 31.9138 122.753 32.3911 122.14 32.8498C123.578 32.4567 124.485 31.4771 125.133 30.7771ZM121.783 30.9353C124.275 30.1663 126.191 27.8647 126.804 27.0824L126.945 25.7831C126.249 26.6687 124.979 28.1563 124.213 28.9174C123.449 29.6757 122.646 30.3572 121.783 30.9353ZM122.417 28.3976C124.977 26.9366 126.561 24.5686 127.07 23.6538L126.872 22.6488C126.392 23.5133 125.404 24.9637 124.745 25.8414C124.082 26.7191 123.316 27.5862 122.417 28.3976Z" fill="#003154"/>
</svg>
