<svg width="180" height="48" viewBox="0 0 180 48" fill="none" xmlns="http://www.w3.org/2000/svg">
<g clip-path="url(#clip0_1526_2837)">
<path fill-rule="evenodd" clip-rule="evenodd" d="M8.64319 14.2447V25.6436H14.0079V14.2447H8.64319ZM22.6937 36.9999H14.0505L11.1127 28.8456H8.68577L8.64319 36.9999H0V11H18.6489C19.8836 11 20.8629 11.3842 21.5867 12.11C22.3105 12.8358 22.6511 13.8177 22.6511 15.0558V24.7898C22.6511 25.8571 22.3531 26.711 21.8422 27.394C21.2887 28.0771 20.5648 28.5467 19.6707 28.7175L22.6937 36.9999ZM33.0827 34.1396H37.383V24.8752H33.0827V34.1396ZM45.345 37H29.123C27.8883 37 26.909 36.6158 26.1852 35.89C25.4614 35.1642 25.0782 34.1823 25.0782 32.9442V25.2168C25.0782 24.2775 25.3762 23.4664 25.9723 22.8687C26.5684 22.271 27.3348 21.9721 28.3141 21.9721H37.383V19.069H29.0805V16.2086H42.1517C43.0884 16.2086 43.8548 16.5075 44.4509 17.1052C45.047 17.7028 45.345 18.4713 45.345 19.4533V37ZM56.1171 34.1395V19.0689H60.4174V34.1395H56.1171ZM52.1148 36.9999H68.4219V11H60.4599V16.2085H51.3058C50.3265 16.2085 49.5601 16.5074 48.9641 17.1051C48.368 17.7028 48.0699 18.5139 48.0699 19.4532V32.9441C48.0699 34.1822 48.4531 35.1641 49.177 35.8899C49.9008 36.6157 50.88 36.9999 52.1148 36.9999ZM106.273 25.4729L112.446 37H104.485L101.291 30.9376L96.8632 37H93.2867L99.7159 28.0772L93.3719 16.2086H101.334L104.74 22.6125L109.338 16.2086H113L106.273 25.4729ZM83.3237 34.1396H79.0234V24.8752H83.3237V34.1396ZM75.0637 37H91.2857V19.4533C91.2857 18.4713 90.9876 17.7028 90.3915 17.1052C89.7954 16.5075 89.0291 16.2086 88.0924 16.2086H75.0211V19.069H83.3237V21.9721H74.2547C73.2755 21.9721 72.5091 22.271 71.913 22.8687C71.3169 23.4664 71.0189 24.2775 71.0189 25.2168V32.9442C71.0189 34.1823 71.4021 35.1642 72.1259 35.89C72.8497 36.6158 73.829 37 75.0637 37Z" fill="#003154"/>
</g>
<defs>
<clipPath id="clip0_1526_2837">
<rect width="113" height="26" fill="white" transform="translate(0 11)"/>
</clipPath>
</defs>
</svg>
