<svg width="166" height="48" viewBox="0 0 166 48" fill="none" xmlns="http://www.w3.org/2000/svg">
<g clip-path="url(#clip0)">
<path d="M0 8C0 3.58172 3.58172 0 8 0H158C162.418 0 166 3.58172 166 8V40C166 44.4183 162.418 48 158 48H8C3.58173 48 0 44.4183 0 40V8Z" fill="#1C1C1C"/>
<path fill-rule="evenodd" clip-rule="evenodd" d="M5.5705 0.000244141C2.49404 0.000244141 0 2.44235 0 5.45479V42.5457C0 45.5582 2.49393 48.0002 5.5705 48.0002H160.431C163.508 48.0002 166.002 45.5582 166.002 42.5457V5.45479C166.002 2.44235 163.508 0.000244141 160.431 0.000244141H5.5705ZM56.6111 31.6246H62.4019L63.7914 35.7686H66.286L60.801 20.437H58.2527L52.7677 35.7686H55.2205L56.6111 31.6246ZM73.5093 35.8856C76.2895 35.8856 78.1317 33.6538 78.1317 30.1801C78.1317 26.7161 76.2786 24.4735 73.4675 24.4735C72.021 24.4264 70.666 25.1856 69.9407 26.4497H69.8989V24.5904H67.6982V39.4661H69.9717V33.9294H70.0244C70.7187 35.2013 72.0723 35.961 73.5093 35.885V35.8856ZM85.7005 35.8856C88.4805 35.8856 90.3228 33.6538 90.3228 30.1801C90.3228 26.7161 88.4698 24.4735 85.6586 24.4735C84.212 24.4264 82.8571 25.1856 82.1318 26.4497H82.09V24.5904H79.8893V39.4661H82.1628V33.9294H82.2154C82.9098 35.2013 84.2635 35.961 85.7005 35.885V35.8856ZM102.012 34.0154C100.012 34.0154 98.5486 33.0172 98.3802 31.4967L96.0529 31.4966C96.1999 34.2698 98.4745 36.0241 101.844 36.0241C105.445 36.0241 107.709 34.2276 107.709 31.3592C107.709 29.1166 106.413 27.853 103.296 27.1091L101.623 26.6942C99.6645 26.2061 98.864 25.5682 98.864 24.4843C98.864 23.1242 100.117 22.1898 101.949 22.1898C103.78 22.1898 105.034 23.1133 105.171 24.6434H107.466C107.392 21.9981 105.191 20.1811 101.981 20.1811C98.7375 20.1811 96.4531 21.9981 96.4531 24.6434C96.4531 26.78 97.7482 28.0966 100.538 28.7766L102.507 29.2553C104.476 29.7437 105.307 30.4561 105.307 31.6462C105.307 33.0172 103.928 34.0154 102.012 34.0154ZM112.615 24.5904V21.9451H110.331V24.5904H108.721V26.4074H110.331V32.8146C110.331 34.9824 111.205 35.8325 113.447 35.8325C113.871 35.8404 114.295 35.8049 114.711 35.7264V33.9202C114.462 33.9512 114.213 33.969 113.963 33.9733C113.037 33.9733 112.615 33.5271 112.615 32.5699V26.4074H114.722V24.5904H112.615ZM121.195 24.453C117.994 24.453 115.942 26.663 115.942 30.1801C115.942 33.7068 117.973 35.9073 121.195 35.9073C124.417 35.9073 126.449 33.7068 126.449 30.1801C126.449 26.663 124.406 24.453 121.195 24.453ZM130.492 24.5904H128.323V35.769H130.597V29.1388C130.521 28.468 130.74 27.7973 131.195 27.3029C131.651 26.8083 132.297 26.5396 132.966 26.5669C133.312 26.5567 133.657 26.6036 133.988 26.7056V24.5593C133.732 24.5015 133.47 24.4728 133.209 24.4738C131.959 24.4256 130.847 25.2685 130.544 26.4933H130.492V24.5908V24.5904ZM139.701 35.9075C142.206 35.9075 144.164 34.5149 144.47 32.4857H142.311C141.897 33.5229 140.856 34.1623 139.753 34.0579C138.926 34.0886 138.126 33.7592 137.556 33.1534C136.986 32.5476 136.701 31.7239 136.774 30.8917V30.7531H144.596V29.967C144.596 26.5776 142.67 24.4532 139.606 24.4532C136.49 24.4532 134.478 26.7272 134.478 30.2334C134.478 33.7287 136.479 35.9075 139.701 35.9075ZM43.8083 30.0979C41.3856 29.0889 39.8103 26.7514 39.8075 24.1613C39.8374 21.8719 41.0563 19.7572 43.0371 18.558C41.7819 16.7927 39.7547 15.7136 37.5672 15.6462C36.1595 15.5008 34.7781 16.0406 33.6491 16.4818H33.649C32.9323 16.762 32.3174 17.0023 31.862 17.0023C31.344 17.0023 30.7113 16.752 30.0024 16.4717C29.0756 16.105 28.0183 15.6869 26.9166 15.7092C24.3583 15.7906 22.031 17.1882 20.7864 19.3905C18.1358 23.9092 20.113 30.5505 22.6519 34.2029C23.9222 35.9914 25.4068 37.9893 27.3495 37.9184C28.2307 37.8824 28.856 37.6233 29.5019 37.3556C30.2492 37.0459 31.0242 36.7248 32.2551 36.7248C33.4157 36.7248 34.1573 37.0359 34.8692 37.3345C35.5515 37.6207 36.2065 37.8954 37.1766 37.8733C39.2163 37.8407 40.5015 36.0768 41.7273 34.2714C42.6399 32.997 43.3423 31.5884 43.8083 30.098V30.0979ZM31.628 15.3095C33.3499 15.327 34.9849 14.5657 36.0639 13.2443C37.1761 11.9296 37.7242 10.2397 37.5915 8.53366C35.8923 8.7094 34.3227 9.50906 33.1954 10.7733C32.0823 12.0206 31.5185 13.6525 31.628 15.3095ZM61.8018 29.7128H57.2117L59.4757 22.9872H59.539L61.8018 29.7128ZM72.8681 26.4296C74.6362 26.4296 75.7952 27.9175 75.7952 30.1806C75.7952 32.4642 74.6362 33.9413 72.8681 33.9413C71.131 33.9413 69.9626 32.4329 69.9626 30.1806C69.9626 27.9488 71.131 26.4296 72.8681 26.4296ZM87.9861 30.1806C87.9861 27.9175 86.8273 26.4296 85.0591 26.4296C83.322 26.4296 82.1535 27.9488 82.1535 30.1806C82.1535 32.4329 83.322 33.9413 85.0591 33.9413C86.8273 33.9413 87.9861 32.4642 87.9861 30.1806ZM121.195 26.344C123.037 26.344 124.133 27.7679 124.133 30.1806C124.133 32.6028 123.037 34.016 121.195 34.016C119.352 34.016 118.258 32.6028 118.258 30.1806C118.258 27.7788 119.352 26.344 121.195 26.344ZM136.785 29.1497H142.322C142.363 28.4018 142.093 27.6706 141.578 27.1321C141.062 26.5935 140.347 26.2965 139.606 26.3126C138.857 26.3081 138.139 26.6052 137.609 27.138C137.08 27.6707 136.782 28.395 136.785 29.1497ZM53.67 16.3642H59.0932V17.8823H60.1864V15.3309H59.2265V8.67788H54.2139L53.9312 13.3387C53.8726 14.3561 53.6806 15.0113 53.1314 15.3309H52.5714V17.8823H53.67V16.3642ZM55.0405 13.3919L55.2751 9.70584H58.032V15.3309H54.5126V15.2882C54.8805 14.8568 54.9871 14.2655 55.0405 13.3919ZM63.5138 16.4708C65.119 16.4708 66.1748 15.3682 66.1748 13.5624C66.1748 11.762 65.1136 10.6593 63.5138 10.6593C61.9194 10.6593 60.8529 11.762 60.8529 13.5624C60.8529 15.3682 61.9087 16.4708 63.5138 16.4708ZM63.5138 15.5227C62.6127 15.5227 62.026 14.8089 62.026 13.5624C62.026 12.3213 62.6179 11.6075 63.5138 11.6075C64.415 11.6075 65.0017 12.3213 65.0017 13.5624C65.0017 14.8089 64.4203 15.5227 63.5138 15.5227ZM69.5503 10.6594C70.9954 10.6594 71.8753 11.5863 71.9766 12.6889H70.8781C70.7608 12.0923 70.3128 11.6183 69.561 11.6183C68.6704 11.6183 68.0838 12.3587 68.0838 13.5625C68.0838 14.793 68.6811 15.5068 69.5716 15.5068C70.2808 15.5068 70.7447 15.118 70.8834 14.4681H71.9872C71.8646 15.6612 70.9101 16.4709 69.561 16.4709C67.9558 16.4709 66.9107 15.3736 66.9107 13.5625C66.9107 11.7834 67.9558 10.6594 69.5503 10.6594ZM77.0478 10.7606H72.3819V11.6715H74.1363V16.3643H75.2935V11.6715H77.0478V10.7606ZM80.6473 16.6573C80.1674 18.0156 79.6181 18.4524 78.4503 18.4524C78.3596 18.4524 78.0663 18.4417 77.981 18.4258V17.4936C78.0663 17.5149 78.2583 17.5149 78.3543 17.5149C78.8876 17.5149 79.1756 17.2912 79.3515 16.7159C79.3515 16.7097 79.3862 16.5938 79.4151 16.4978V16.4977C79.4355 16.4299 79.4529 16.3718 79.4529 16.3696L77.4265 10.7606H78.6743L80.0927 15.3203H80.114L81.5379 10.7606H82.7536L80.6473 16.6573ZM87.1477 16.3643H88.3048V10.7606H83.5216V16.3643H84.6733V11.6715H87.1477V16.3643ZM94.3787 16.3643H93.2268V13.9247H90.6991V16.3643H89.5473V10.7606H90.6991V13.0191H93.2268V10.7606H94.3787V16.3643ZM98.0368 16.4709C99.6418 16.4709 100.698 15.3683 100.698 13.5625C100.698 11.7621 99.6365 10.6594 98.0368 10.6594C96.4423 10.6594 95.3759 11.7621 95.3759 13.5625C95.3759 15.3683 96.4317 16.4709 98.0368 16.4709ZM98.0368 15.5228C97.1356 15.5228 96.549 14.809 96.549 13.5625C96.549 12.3214 97.1409 11.6076 98.0368 11.6076C98.938 11.6076 99.5245 12.3214 99.5245 13.5625C99.5245 14.809 98.9433 15.5228 98.0368 15.5228ZM108.457 14.7504C108.457 15.7358 107.699 16.3643 106.484 16.3643H103.903V10.7606H106.452C107.545 10.7606 108.206 11.3093 108.206 12.2042C108.206 12.7848 107.79 13.3175 107.251 13.4186V13.4613C107.977 13.5572 108.457 14.0579 108.457 14.7504ZM106.212 11.5969H105.044V13.0884H106.094C106.745 13.0884 107.07 12.838 107.07 12.3373C107.07 11.8633 106.766 11.5969 106.212 11.5969ZM106.169 13.8927H105.044V15.528H106.302C106.947 15.528 107.305 15.2404 107.305 14.7024C107.305 14.1591 106.926 13.8927 106.169 13.8927Z" fill="white"/>
</g>
<path d="M8 1.09211H158V-1.09211H8V1.09211ZM164.908 8V40H167.092V8H164.908ZM158 46.9079H8V49.0921H158V46.9079ZM1.09211 40V8H-1.09211V40H1.09211ZM8 46.9079C4.18488 46.9079 1.09211 43.8151 1.09211 40H-1.09211C-1.09211 45.0214 2.97857 49.0921 8 49.0921V46.9079ZM164.908 40C164.908 43.8151 161.815 46.9079 158 46.9079V49.0921C163.021 49.0921 167.092 45.0214 167.092 40H164.908ZM158 1.09211C161.815 1.09211 164.908 4.18488 164.908 8H167.092C167.092 2.97857 163.021 -1.09211 158 -1.09211V1.09211ZM8 -1.09211C2.97857 -1.09211 -1.09211 2.97857 -1.09211 8H1.09211C1.09211 4.18488 4.18488 1.09211 8 1.09211V-1.09211Z" fill="#1C1C1C"/>
<defs>
<clipPath id="clip0">
<path d="M0 8C0 3.58172 3.58172 0 8 0H158C162.418 0 166 3.58172 166 8V40C166 44.4183 162.418 48 158 48H8C3.58173 48 0 44.4183 0 40V8Z" fill="white"/>
</clipPath>
</defs>
</svg>
