<svg width="166" height="48" viewBox="0 0 166 48" fill="none" xmlns="http://www.w3.org/2000/svg">
<g clip-path="url(#clip0)">
<path d="M0 8C0 3.58172 3.58172 0 8 0H158C162.418 0 166 3.58172 166 8V40C166 44.4183 162.418 48 158 48H8C3.58173 48 0 44.4183 0 40V8Z" fill="#1C1C1C"/>
<path d="M82.203 33.9316C82.9783 33.9129 83.7136 33.5686 84.2418 32.9769C84.7701 32.3852 85.0465 31.5961 85.0085 30.7889C85.0054 29.4985 84.2458 28.3412 83.0927 27.8704C81.9398 27.3997 80.6277 27.7113 79.7843 28.6561C78.9409 29.6009 78.7374 30.9869 79.2712 32.1513C79.8051 33.3157 80.9676 34.0216 82.203 33.9316Z" fill="white"/>
<path d="M71.3084 33.9316C72.0838 33.9128 72.819 33.5686 73.3472 32.9768C73.8755 32.3851 74.1519 31.5961 74.1139 30.7889C74.1105 29.4975 73.3493 28.3397 72.1948 27.87C71.0404 27.4002 69.7278 27.7143 68.8855 28.6618C68.0433 29.6091 67.843 30.997 68.3805 32.1606C68.9182 33.3243 70.0841 34.0267 71.3201 33.9316H71.3084Z" fill="white"/>
<path d="M104.542 30.6425L108.984 28.7179C108.635 28.0001 107.908 27.5687 107.137 27.6217C106.406 27.6561 105.719 27.9957 105.23 28.5639C104.742 29.1323 104.494 29.8814 104.542 30.6425Z" fill="white"/>
<path d="M93.0615 33.9316H93.0508L93.0582 33.9313L93.0615 33.9316Z" fill="white"/>
<path d="M95.0287 32.9542C94.5271 33.5457 93.8157 33.8984 93.059 33.931C91.4977 33.7857 90.3008 32.4224 90.3008 30.7886C90.3008 29.1536 91.4996 27.7895 93.0626 27.6459C93.8179 27.6863 94.5256 28.0427 95.0251 28.6344C95.5248 29.2261 95.7739 30.0028 95.7162 30.7886C95.7806 31.578 95.5322 32.3605 95.0287 32.9542Z" fill="white"/>
<path d="M121.562 27.744L121.609 27.7805C122.994 27.7805 124.115 26.6108 124.115 25.1677C124.115 23.7247 122.994 22.5549 121.609 22.5549H118.511V27.744H121.562Z" fill="white"/>
<path d="M134.766 33.8946L134.823 33.9311C136.141 33.8977 137.233 32.8585 137.384 31.4949C136.777 31.1421 136.091 30.9655 135.397 30.9834C134.298 30.9834 133.059 31.3852 133.059 32.6034C133.059 33.517 134.052 33.8946 134.766 33.8946Z" fill="white"/>
<path fill-rule="evenodd" clip-rule="evenodd" d="M5.38965 0.000244141C2.41301 0.000244141 0 2.44235 0 5.45479V42.5457C0 45.5582 2.41301 48.0002 5.38965 48.0002H160.611C163.587 48.0002 166 45.5582 166 42.5457V5.45479C166 2.44235 163.587 0.000244141 160.611 0.000244141H5.38965ZM85.7522 27.0973C84.8113 26.1213 83.5303 25.5852 82.203 25.6118C79.4622 25.6253 77.2497 27.949 77.2583 30.8049C77.2669 33.6609 79.4934 35.9701 82.2341 35.9657C84.9749 35.9612 87.1943 33.6447 87.1945 30.7887C87.2137 29.4055 86.6932 28.0733 85.7522 27.0973ZM74.8575 27.0973C73.9165 26.1213 72.6357 25.5852 71.3082 25.6118H71.3199C68.5777 25.6185 66.3593 27.9393 66.3635 30.7968C66.3679 33.6544 68.5933 35.9679 71.3355 35.9657C74.0778 35.9635 76.2997 33.6463 76.2997 30.7887C76.3189 29.4055 75.7985 28.0733 74.8575 27.0973ZM65.4518 27.1466L58.3562 27.2075V29.4001H63.4061C63.3269 30.4328 62.915 31.4073 62.2371 32.1653C61.2156 33.2496 59.8017 33.8336 58.3445 33.7732C55.2457 33.7732 52.7335 31.1554 52.7335 27.9262C52.7335 24.697 55.2457 22.0794 58.3445 22.0794C59.7681 22.0552 61.1427 22.6202 62.167 23.6507L63.6516 22.1037C62.2546 20.6296 60.3443 19.8079 58.3562 19.8259C55.5261 19.711 52.8626 21.219 51.4148 23.7554C49.967 26.292 49.967 29.4508 51.4148 31.9873C52.8626 34.5238 55.5261 36.0318 58.3562 35.917C60.3805 36.0122 62.3456 35.1906 63.7451 33.6635C64.9698 32.2614 65.6236 30.4182 65.5687 28.523C65.5724 28.0614 65.5333 27.6005 65.4518 27.1466ZM111.567 29.461L111.321 28.9128C110.698 26.9995 109.005 25.6861 107.067 25.6118C105.774 25.6092 104.538 26.1642 103.653 27.1448C102.767 28.1255 102.31 29.4446 102.391 30.7887C102.362 32.1644 102.872 33.493 103.802 34.4694C104.732 35.4457 106.004 35.9858 107.324 35.9657C108.985 35.975 110.539 35.1147 111.462 33.6756L109.767 32.4575C109.252 33.3516 108.324 33.8975 107.324 33.8949C106.288 33.936 105.333 33.3129 104.916 32.3236L111.567 29.461ZM99.1411 20.4349V35.6608H101.327V20.4349H99.1411ZM95.564 25.9163V26.769H95.4822C94.8158 25.9927 93.8633 25.5496 92.8638 25.5509C90.2104 25.685 88.1251 27.9658 88.1251 30.734C88.1251 33.5021 90.2104 35.7829 92.8638 35.917C93.8666 35.9346 94.8252 35.4885 95.4822 34.6989H95.5523V35.4419C95.5523 37.4274 94.5354 38.4872 92.8988 38.4872C91.784 38.46 90.7956 37.7333 90.3973 36.6478L88.4919 37.4761C89.2255 39.3359 90.9691 40.5456 92.8988 40.5336C95.4588 40.5336 97.5746 38.9622 97.5746 35.1373V25.9163H95.564ZM121.573 20.4349H116.336V35.6608H118.522V29.8869H121.573C123.271 30.0141 124.895 29.142 125.781 27.6273C126.667 26.1126 126.667 24.2088 125.781 22.6941C124.895 21.1793 123.271 20.3073 121.573 20.4345V20.4349ZM135.098 25.5874L135.039 25.5509C133.413 25.4496 131.884 26.3635 131.147 27.8774L133.088 28.718C133.479 27.9672 134.257 27.5277 135.074 27.5973C135.634 27.5291 136.198 27.6984 136.638 28.0672C137.077 28.4359 137.357 28.9733 137.412 29.5584V29.7168C136.71 29.3294 135.927 29.1286 135.133 29.1321C133.041 29.1321 130.924 30.3502 130.924 32.555C130.967 33.5048 131.375 34.3966 132.058 35.0275C132.74 35.6585 133.638 35.9748 134.549 35.9048C135.669 35.9887 136.745 35.4282 137.353 34.4431H137.424V35.6612H139.528V29.8021C139.528 27.1344 137.588 25.5874 135.098 25.5874ZM149.628 25.9163H147.197L144.695 32.5185H144.625L142.03 25.9163H139.692L143.585 35.1496L141.364 40.2778H143.643L149.628 25.916V25.9163ZM127.546 20.4349V35.6608H129.733V20.4349H127.546ZM41.7942 23.8217C41.7942 23.4761 41.619 23.1664 41.3259 22.9933L36.3563 20.067L32.2691 24.0989L36.0045 27.7837L41.3258 24.6494C41.619 24.4769 41.7942 24.1672 41.7942 23.8217ZM31.5956 23.4343L35.5128 19.5697L30.044 16.348L18.0593 10.0804L31.5959 23.4342L31.5956 23.4343ZM31.5956 24.7633L18.2577 37.9208L30.0645 31.2837L35.161 28.2813L31.5955 24.7638L31.5956 24.7633ZM30.922 24.0985L17.2586 10.6204L17.246 37.5887L30.9213 24.0985H30.922ZM80.6455 16.6567C80.1657 18.015 79.6163 18.4518 78.4485 18.4518C78.3579 18.4518 78.0646 18.4411 77.9793 18.4252V17.493C78.0646 17.5142 78.2565 17.5142 78.3525 17.5142C78.8858 17.5142 79.1738 17.2906 79.3497 16.7153C79.3497 16.709 79.3845 16.5931 79.4133 16.4971C79.4337 16.4292 79.4511 16.3712 79.4511 16.369L77.4247 10.76H78.6725L80.091 15.3197H80.1123L81.5361 10.76H82.7519L80.6455 16.6567ZM77.0461 10.76H72.3801V11.6709H74.1345V16.3636H75.2917V11.6709H77.0461V10.76ZM59.0919 16.3637H53.6687V17.8818H52.5701V15.3304H53.13C53.6793 15.0107 53.8713 14.3555 53.9299 13.3381L54.2125 8.67733H59.2252V15.3304H60.185V17.8818H59.0919V16.3637ZM55.0392 13.3914L55.2737 9.7053H58.0307V15.3304H54.5112V15.2877C54.8792 14.8562 54.9858 14.265 55.0392 13.3914ZM63.5125 16.4702C65.1176 16.4702 66.1735 15.3677 66.1735 13.5619C66.1735 11.7614 65.1123 10.6588 63.5125 10.6588C61.9181 10.6588 60.8516 11.7614 60.8516 13.5619C60.8516 15.3677 61.9074 16.4702 63.5125 16.4702ZM62.0247 13.5619C62.0247 14.8084 62.6114 15.5221 63.5125 15.5221C64.419 15.5221 65.0004 14.8084 65.0004 13.5619C65.0004 12.3208 64.4137 11.607 63.5125 11.607C62.6166 11.607 62.0247 12.3208 62.0247 13.5619ZM69.549 10.6588C70.994 10.6588 71.874 11.5856 71.9753 12.6883H70.8768C70.7595 12.0917 70.3115 11.6177 69.5597 11.6177C68.6691 11.6177 68.0825 12.3581 68.0825 13.5619C68.0825 14.7923 68.6798 15.5061 69.5703 15.5061C70.2795 15.5061 70.7434 15.1173 70.8821 14.4674H71.9859C71.8633 15.6606 70.9088 16.4702 69.5597 16.4702C67.9545 16.4702 66.9094 15.3729 66.9094 13.5619C66.9094 11.7827 67.9545 10.6588 69.549 10.6588ZM87.1461 16.3636H88.3032V10.7599H83.52V16.3636H84.6717V11.6708H87.1461V16.3636ZM94.377 16.3636H93.2252V13.924H90.6975V16.3636H89.5456V10.7599H90.6975V13.0184H93.2252V10.7599H94.377V16.3636ZM98.0351 16.4701C99.6402 16.4701 100.696 15.3676 100.696 13.5618C100.696 11.7613 99.6348 10.6586 98.0351 10.6586C96.4406 10.6586 95.3742 11.7613 95.3742 13.5618C95.3742 15.3676 96.4301 16.4701 98.0351 16.4701ZM96.5473 13.5618C96.5473 14.8082 97.1339 15.522 98.0351 15.522C98.9417 15.522 99.5229 14.8082 99.5229 13.5618C99.5229 12.3206 98.9363 11.6069 98.0351 11.6069C97.1393 11.6069 96.5473 12.3206 96.5473 13.5618ZM108.455 14.7497C108.455 15.7351 107.697 16.3636 106.482 16.3636H103.901V10.7599H106.45C107.543 10.7599 108.204 11.3086 108.204 12.2035C108.204 12.7841 107.788 13.3168 107.249 13.4179V13.4605C107.975 13.5564 108.455 14.0572 108.455 14.7497ZM105.042 11.5962H106.21C106.764 11.5962 107.068 11.8626 107.068 12.3366C107.068 12.8373 106.743 13.0877 106.092 13.0877H105.042V11.5962ZM105.042 13.892H106.167C106.924 13.892 107.303 14.1584 107.303 14.7017C107.303 15.2397 106.945 15.5273 106.3 15.5273H105.042V13.892Z" fill="white"/>
</g>
<path d="M8 1.09211H158V-1.09211H8V1.09211ZM164.908 8V40H167.092V8H164.908ZM158 46.9079H8V49.0921H158V46.9079ZM1.09211 40V8H-1.09211V40H1.09211ZM8 46.9079C4.18488 46.9079 1.09211 43.8151 1.09211 40H-1.09211C-1.09211 45.0214 2.97857 49.0921 8 49.0921V46.9079ZM164.908 40C164.908 43.8151 161.815 46.9079 158 46.9079V49.0921C163.021 49.0921 167.092 45.0214 167.092 40H164.908ZM158 1.09211C161.815 1.09211 164.908 4.18488 164.908 8H167.092C167.092 2.97857 163.021 -1.09211 158 -1.09211V1.09211ZM8 -1.09211C2.97857 -1.09211 -1.09211 2.97857 -1.09211 8H1.09211C1.09211 4.18488 4.18488 1.09211 8 1.09211V-1.09211Z" fill="#1C1C1C"/>
<defs>
<clipPath id="clip0">
<path d="M0 8C0 3.58172 3.58172 0 8 0H158C162.418 0 166 3.58172 166 8V40C166 44.4183 162.418 48 158 48H8C3.58173 48 0 44.4183 0 40V8Z" fill="white"/>
</clipPath>
</defs>
</svg>
