<svg width="12" height="16" viewBox="0 0 12 16" fill="none" xmlns="http://www.w3.org/2000/svg">
<path fill-rule="evenodd" clip-rule="evenodd" d="M5.46 0.906626L0.793333 2.97996C0.313333 3.19329 0 3.67329 0 4.19996V7.33329C0 11.0333 2.56 14.4933 6 15.3333C9.44 14.4933 12 11.0333 12 7.33329V4.19996C12 3.67329 11.6867 3.19329 11.2067 2.97996L6.54 0.906626C6.2 0.753293 5.8 0.753293 5.46 0.906626ZM4.19333 10.86L2.46667 9.13329C2.20667 8.87329 2.20667 8.45329 2.46667 8.19329C2.72667 7.93329 3.14667 7.93329 3.40667 8.19329L4.66667 9.44663L8.58667 5.52663C8.84667 5.26663 9.26667 5.26663 9.52667 5.52663C9.78667 5.78663 9.78667 6.20663 9.52667 6.46663L5.13333 10.86C4.88 11.12 4.45333 11.12 4.19333 10.86Z" fill="#00BA34"/>
</svg>
