<svg width="20" height="20" viewBox="0 0 20 20" fill="none" xmlns="http://www.w3.org/2000/svg">
<path fill-rule="evenodd" clip-rule="evenodd" d="M1.25 16.6667C1.25 16.4457 1.33381 16.2337 1.48298 16.0774C1.63216 15.9211 1.83449 15.8333 2.04545 15.8333H17.9545C18.1655 15.8333 18.3678 15.9211 18.517 16.0774C18.6662 16.2337 18.75 16.4457 18.75 16.6667C18.75 16.8877 18.6662 17.0996 18.517 17.2559C18.3678 17.4122 18.1655 17.5 17.9545 17.5H2.04545C1.83449 17.5 1.63216 17.4122 1.48298 17.2559C1.33381 17.0996 1.25 16.8877 1.25 16.6667ZM1.25 10C1.25 9.77899 1.33381 9.56703 1.48298 9.41075C1.63216 9.25446 1.83449 9.16667 2.04545 9.16667H17.9545C18.1655 9.16667 18.3678 9.25446 18.517 9.41075C18.6662 9.56703 18.75 9.77899 18.75 10C18.75 10.221 18.6662 10.433 18.517 10.5893C18.3678 10.7455 18.1655 10.8333 17.9545 10.8333H2.04545C1.83449 10.8333 1.63216 10.7455 1.48298 10.5893C1.33381 10.433 1.25 10.221 1.25 10ZM1.25 3.33333C1.25 3.11232 1.33381 2.90036 1.48298 2.74408C1.63216 2.5878 1.83449 2.5 2.04545 2.5H17.9545C18.1655 2.5 18.3678 2.5878 18.517 2.74408C18.6662 2.90036 18.75 3.11232 18.75 3.33333C18.75 3.55435 18.6662 3.76631 18.517 3.92259C18.3678 4.07887 18.1655 4.16667 17.9545 4.16667H2.04545C1.83449 4.16667 1.63216 4.07887 1.48298 3.92259C1.33381 3.76631 1.25 3.55435 1.25 3.33333Z" fill="#1E1E1E"/>
<path fill-rule="evenodd" clip-rule="evenodd" d="M2.04545 2.5625C1.85203 2.5625 1.6659 2.64297 1.52819 2.78723C1.39039 2.93159 1.3125 3.12798 1.3125 3.33333C1.3125 3.53868 1.39039 3.73507 1.52819 3.87943C1.6659 4.0237 1.85203 4.10417 2.04545 4.10417H17.9545C18.148 4.10417 18.3341 4.0237 18.4718 3.87943C18.6096 3.73507 18.6875 3.53869 18.6875 3.33333C18.6875 3.12798 18.6096 2.93159 18.4718 2.78723C18.3341 2.64297 18.148 2.5625 17.9545 2.5625H2.04545ZM1.43777 2.70092C1.59842 2.53262 1.81695 2.4375 2.04545 2.4375H17.9545C18.1831 2.4375 18.4016 2.53262 18.5622 2.70092C18.7228 2.86912 18.8125 3.09666 18.8125 3.33333C18.8125 3.57001 18.7228 3.79754 18.5622 3.96574C18.4016 4.13404 18.1831 4.22917 17.9545 4.22917H2.04545C1.81695 4.22917 1.59842 4.13404 1.43777 3.96574C1.27722 3.79754 1.1875 3.57001 1.1875 3.33333C1.1875 3.09666 1.27722 2.86912 1.43777 2.70092ZM2.04545 9.22917C1.85203 9.22917 1.6659 9.30964 1.52819 9.4539C1.39039 9.59826 1.3125 9.79465 1.3125 10C1.3125 10.2054 1.3904 10.4017 1.52819 10.5461C1.6659 10.6904 1.85203 10.7708 2.04545 10.7708H17.9545C18.148 10.7708 18.3341 10.6904 18.4718 10.5461C18.6096 10.4017 18.6875 10.2054 18.6875 10C18.6875 9.79465 18.6096 9.59826 18.4718 9.4539C18.3341 9.30964 18.148 9.22917 17.9545 9.22917H2.04545ZM1.43777 9.36759C1.59842 9.19929 1.81695 9.10417 2.04545 9.10417H17.9545C18.1831 9.10417 18.4016 9.19929 18.5622 9.36759C18.7228 9.53579 18.8125 9.76332 18.8125 10C18.8125 10.2367 18.7228 10.4642 18.5622 10.6324C18.4016 10.8007 18.1831 10.8958 17.9545 10.8958H2.04545C1.81695 10.8958 1.59842 10.8007 1.43777 10.6324C1.27722 10.4642 1.1875 10.2367 1.1875 10C1.1875 9.76332 1.27722 9.53579 1.43777 9.36759ZM2.04545 15.8958C1.85203 15.8958 1.6659 15.9763 1.52819 16.1206C1.3904 16.2649 1.3125 16.4613 1.3125 16.6667C1.3125 16.872 1.3904 17.0684 1.52819 17.2128C1.6659 17.357 1.85203 17.4375 2.04545 17.4375H17.9545C18.148 17.4375 18.3341 17.357 18.4718 17.2128C18.6096 17.0684 18.6875 16.872 18.6875 16.6667C18.6875 16.4613 18.6096 16.2649 18.4718 16.1206C18.3341 15.9763 18.148 15.8958 17.9545 15.8958H2.04545ZM1.43777 16.0343C1.59842 15.866 1.81695 15.7708 2.04545 15.7708H17.9545C18.1831 15.7708 18.4016 15.866 18.5622 16.0343C18.7228 16.2025 18.8125 16.43 18.8125 16.6667C18.8125 16.9033 18.7228 17.1309 18.5622 17.2991C18.4016 17.4674 18.1831 17.5625 17.9545 17.5625H2.04545C1.81695 17.5625 1.59842 17.4674 1.43777 17.2991C1.27722 17.1309 1.1875 16.9033 1.1875 16.6667C1.1875 16.43 1.27722 16.2025 1.43777 16.0343Z" fill="#1E1E1E"/>
</svg>
