<svg width="180" height="48" viewBox="0 0 180 48" fill="none" xmlns="http://www.w3.org/2000/svg">
<g clip-path="url(#clip0_1526_2821)">
<path fill-rule="evenodd" clip-rule="evenodd" d="M24.0787 24.0418C24.0787 18.27 27.9149 13 36.4853 13C44.974 13 49.0552 18.27 49.0552 24.0418C49.0552 29.8137 44.974 35 36.4853 35C28.4863 35 24.0787 29.8137 24.0787 24.0418ZM37.5464 33.2434C39.4237 32.8251 40.4032 28.9772 40.2399 25.2966C39.9951 18.7719 37.4648 15.0913 35.7507 14.7567C33.6285 15.5932 33.0571 19.4411 33.2204 22.9544C33.3836 28.9772 35.5058 32.9924 37.5464 33.2434ZM53.7896 13.502H62.5232V32.0723H68.4V34.4982H53.7896V13.502ZM74.6029 29.0609H81.1327L82.357 34.4982H91.662L87.0912 13.502H75.5007L70.8482 34.4982H73.3785C73.6234 33.7453 74.6029 29.0609 74.6029 29.0609ZM78.2759 16.2624L80.643 26.886H75.011L77.3781 16.2624H78.2759ZM113.945 13.5018H124.964C125.404 13.5018 125.863 13.4899 126.334 13.4777C128.919 13.4107 131.846 13.3348 133.779 15.1748C135.085 16.4296 135.575 18.1862 135.575 19.9428C135.493 23.4562 134.024 25.4638 131.575 26.6349L131.902 27.3041L136.473 34.4144H127.086L123.821 27.0531L122.678 26.9695V34.4144H113.945V13.5018ZM122.678 25.3801C123.168 25.4638 125.045 25.6311 125.045 25.6311C125.045 25.6311 126.841 23.2052 126.841 20.1102C126.841 18.7718 126.841 15.2585 122.678 15.2585V25.3801ZM97.2943 34.4982H106.028V13.502H97.2943V34.4982ZM11.1007 13.502C16.2429 13.502 21.2219 14.0039 21.2219 19.7758C21.2219 27.2206 16.4061 28.8936 11.7536 28.8936C10.6109 28.8936 9.54984 28.81 8.73361 28.6427V34.4982H0V13.502H11.1007ZM8.73361 26.7187C9.22335 26.8024 11.1007 26.9697 11.1007 26.9697C11.1007 26.9697 12.8964 24.7111 12.8964 20.7795C12.8964 19.2738 12.8964 15.3423 8.81524 15.3423V26.7187H8.73361ZM157.042 19.6084H163V28.3917H157.042V34.4982H148.471V28.3917H142.513V19.6084H148.471V13.502H157.042V19.6084Z" fill="#003154"/>
</g>
<defs>
<clipPath id="clip0_1526_2821">
<rect width="163" height="22" fill="white" transform="translate(0 13)"/>
</clipPath>
</defs>
</svg>
