<svg width="180" height="48" viewBox="0 0 180 48" fill="none" xmlns="http://www.w3.org/2000/svg">
<g clip-path="url(#clip0_1526_2773)">
<path fill-rule="evenodd" clip-rule="evenodd" d="M41.5999 7.63516C42.5851 8.04614 43.2785 8.83076 43.6799 9.72746C44.0813 10.5868 44.2637 11.5582 44.2637 12.5297C44.2637 14.1736 43.6434 15.7802 42.3662 16.7516C41.8188 17.1626 41.1985 17.4615 40.5051 17.6483C39.8118 17.7978 39.009 17.9099 38.2792 17.9099H37.9872H37.5129C37.4399 17.9099 37.3578 17.9005 37.2757 17.8912C37.1936 17.8818 37.1115 17.8725 37.0385 17.8725H36.929V21.534H33.6813V7.37363L33.8272 7.33626C34.4111 7.22417 35.068 7.14944 35.7613 7.07472C36.4546 7.03736 37.3304 7 38.0237 7C38.3886 7 38.79 7.03736 39.1915 7.07472C39.6293 7.11208 40.0672 7.18681 40.4686 7.26153C40.87 7.37362 41.235 7.48571 41.5999 7.63516ZM37.6223 14.9582C38.0237 14.9956 38.4981 14.9956 38.8995 14.9209C39.4104 14.8461 40.9795 14.5846 40.9795 12.6044C40.9795 10.5329 39.6906 10.243 39.2929 10.1536C39.2674 10.1479 39.2455 10.143 39.2279 10.1385C38.936 10.0637 38.6076 10.0264 38.2427 10.0264C38.0862 10.0264 37.9298 10.0371 37.7846 10.0471C37.6588 10.0557 37.5415 10.0637 37.4399 10.0637C37.2939 10.0637 36.9655 10.1011 36.9655 10.1011V14.9209C36.9655 14.9209 37.5129 14.9582 37.6223 14.9582ZM0 36.1801V7.14941H25.2519V36.1801L12.6259 40.9252L0 36.1801ZM20.1796 16.1164C19.8512 16.0043 19.4863 15.8923 19.0849 15.7802C17.4063 15.3692 15.8007 15.3318 14.487 15.6681C14.9979 16.0417 15.5452 16.6395 15.9831 17.4241C17.1509 17.312 18.428 17.4988 19.7052 18.0219C19.8224 18.0733 19.9319 18.1247 20.0337 18.1725C20.1538 18.229 20.2633 18.2804 20.3621 18.3208L21.1284 16.5648L21.0554 16.5274C20.8 16.378 20.508 16.2285 20.1796 16.1164ZM7.0428 17.4241H7.15227C7.27318 17.4241 7.41912 17.3985 7.59009 17.3684L7.59012 17.3684C7.62555 17.3622 7.66206 17.3558 7.69964 17.3494C8.24701 17.2747 8.94034 17.1999 8.97683 17.1999H9.63367H9.96209C10.6189 17.1999 11.2393 17.4241 11.4947 17.5362C11.8961 17.6856 12.261 17.9098 12.553 18.2087C12.8449 18.4703 13.0638 18.8065 13.2098 19.2175C13.3558 19.5911 13.4288 20.0395 13.4288 20.4878C13.4288 21.0109 13.3558 21.4966 13.1733 21.945C12.9909 22.356 12.7719 22.767 12.4435 23.0659L12.334 23.1779L12.3357 23.1863C12.3757 23.3921 12.5617 24.3467 13.1733 25.0834L13.1734 25.0834C13.3923 24.934 13.6112 24.7845 13.8302 24.5977C14.3775 24.1494 14.7789 23.5516 15.1073 22.879C15.4358 22.2065 15.5817 21.3846 15.5817 20.4878C15.5817 19.7032 15.4358 18.956 15.1803 18.3208C14.9249 17.6857 14.5235 17.1252 14.0491 16.7142C13.5747 16.3032 12.9909 15.967 12.2975 15.7428C11.7137 15.556 10.6919 15.3318 9.81612 15.3318C8.42946 15.3318 7.15227 15.4439 6.60491 15.556H6.42245C6.13052 15.556 5.36421 15.6307 4.78035 15.7802L4.67087 15.8175V29.156H6.78736V25.4571C7.15227 25.5692 7.8821 25.756 8.86736 25.9054C8.48625 25.0186 8.3354 24.2328 8.28989 23.9957L8.2835 23.9626C7.81018 23.8818 7.41266 23.7816 7.10459 23.704C6.98513 23.6739 6.87913 23.6472 6.78736 23.6263V17.4615C6.82385 17.4615 6.86947 17.4521 6.91508 17.4428C6.96069 17.4335 7.00631 17.4241 7.0428 17.4241ZM21.2014 28.1472L21.2379 28.1098H21.2744V22.2439H17.2238L16.421 23.9999L19.3768 23.9626V26.8768L19.3038 26.9516C19.2795 26.964 19.2592 26.9765 19.239 26.9889L19.239 26.9889C19.1984 27.0138 19.1579 27.0387 19.0849 27.0636C18.9024 27.1384 18.647 27.2131 18.3916 27.2878C18.1361 27.3626 17.8807 27.3999 17.5887 27.4373C15.9102 27.6614 13.6477 27.3252 12.407 25.6439C11.2758 24.1494 11.0568 21.7582 11.8596 20.1142C11.9691 19.8527 12.1151 19.6285 12.2975 19.4043C11.8231 18.545 10.9474 18.3955 10.6189 18.3582C9.77964 19.5538 9.26876 21.0109 9.26876 22.4307C9.26876 25.4197 10.7284 27.8109 13.1733 28.8944C14.0856 29.3054 15.1803 29.4922 16.3116 29.4922C17.2603 29.4922 18.2456 29.3801 19.2308 29.0812C19.6323 28.9691 20.0337 28.8197 20.3621 28.6702C20.4198 28.6374 20.4763 28.6058 20.5316 28.5749L20.5338 28.5736L20.5339 28.5736C20.7922 28.429 21.0214 28.3007 21.2014 28.1472ZM40.9797 32.8175L39.812 35.4703H43.0232V37.5252C42.8773 37.5999 42.7313 37.6746 42.5489 37.712C42.3569 37.7775 42.1368 37.8143 41.9379 37.8476L41.9378 37.8476L41.8555 37.8615C41.6366 37.8988 41.3811 37.9362 41.1622 37.9362C41.0417 37.9362 40.9211 37.9475 40.8128 37.9577C40.7243 37.966 40.644 37.9736 40.5783 37.9736C39.9945 37.9736 39.4471 37.9362 38.9362 37.8241C38.4619 37.712 38.024 37.5626 37.659 37.301C37.1117 36.9648 36.6738 36.479 36.3454 35.8439C36.0169 35.2087 35.871 34.4615 35.871 33.5648C35.871 32.8175 35.9805 32.145 36.1994 31.5472C36.4184 30.9868 36.7468 30.501 37.1482 30.1274C37.3671 29.9406 37.5861 29.7538 37.878 29.6043C38.1334 29.4549 38.4254 29.3428 38.7173 29.2681C39.0092 29.1934 39.3376 29.1186 39.6296 29.0813C40.5783 28.9692 41.5636 29.0439 42.5124 29.3054C43.1692 29.4922 43.7531 29.7164 44.3369 29.978L44.5194 30.0527L45.4682 27.1384L45.3222 27.0637C44.5559 26.6901 43.7531 26.4659 42.8773 26.2791C42.0015 26.1296 41.1257 26.0549 40.2864 26.0549C39.812 26.0549 39.3012 26.0923 38.7538 26.167C38.2429 26.2417 37.6955 26.3538 37.1847 26.5406C36.6738 26.7274 36.1629 26.9516 35.6885 27.2505C35.2141 27.5494 34.7762 27.923 34.3748 28.3714C34.1194 28.6702 33.864 29.0065 33.6086 29.3427L33.6085 29.3428L33.6085 29.3429C33.3895 29.7165 33.1706 30.0901 32.9882 30.5384C32.8057 30.9494 32.6962 31.4351 32.5868 31.9208C32.4773 32.4065 32.4408 32.9296 32.4408 33.49C32.4408 34.6483 32.6233 35.6944 32.9517 36.5911C33.2801 37.4878 33.791 38.2725 34.4843 38.945C34.8857 39.3186 35.2871 39.6549 35.7615 39.9164C36.2359 40.1779 36.7103 40.4021 37.2211 40.5516C37.732 40.701 38.2429 40.8131 38.7538 40.8878C39.2647 40.9626 39.812 40.9999 40.2864 40.9999C40.6513 40.9999 41.0162 40.9999 41.4541 40.9626C41.8331 40.9302 42.212 40.8699 42.6145 40.8058L42.6147 40.8058L42.8043 40.7757L42.8043 40.7757C43.2787 40.6636 43.7531 40.5516 44.2275 40.3648L44.2937 40.3387C44.7554 40.1571 45.3076 39.94 45.7601 39.6549L45.8331 39.6175V32.9296H40.9797V32.8175ZM98.2708 26.4659C98.6722 26.5779 99.0371 26.69 99.402 26.8395C100.424 27.2505 101.081 27.9977 101.482 28.8944C101.883 29.7164 102.066 30.7252 102.066 31.6966C102.066 33.3406 101.446 34.9472 100.168 35.9186C99.621 36.3296 99.0006 36.6285 98.3073 36.8153C97.614 36.9647 96.8112 37.0768 96.0813 37.0768H95.7894H95.315C95.242 37.0768 95.1599 37.0675 95.0778 37.0581C94.9957 37.0488 94.9136 37.0395 94.8406 37.0395H94.7312V40.701H91.4835V26.5779L91.6294 26.5406C92.2133 26.4285 92.8701 26.3538 93.5634 26.279C94.2568 26.2417 95.1326 26.2043 95.8259 26.2043C96.1908 26.2043 96.5921 26.2417 96.9935 26.279L96.9936 26.279C97.4315 26.3164 97.8694 26.3911 98.2708 26.4659ZM95.4245 34.1625C95.8259 34.1999 96.3003 34.1999 96.7017 34.1252C96.7268 34.1197 96.7546 34.1139 96.7845 34.1076L96.7853 34.1075C97.3645 33.9865 98.7817 33.6906 98.7817 31.8087C98.7817 29.7372 97.4927 29.4474 97.0951 29.3579C97.0695 29.3522 97.0477 29.3473 97.0301 29.3428C96.7382 29.268 96.4098 29.2307 96.0448 29.2307C95.8884 29.2307 95.732 29.2414 95.5868 29.2514L95.5867 29.2514C95.4609 29.26 95.3436 29.268 95.242 29.268C95.0961 29.268 94.7677 29.3054 94.7677 29.3054V34.1252C94.7677 34.1252 95.315 34.1625 95.4245 34.1625ZM52.146 21.8329C53.2407 21.8329 54.226 21.6461 55.1017 21.3099C55.9775 20.9362 56.7074 20.4505 57.3277 19.778C57.9481 19.1428 58.386 18.3209 58.7144 17.4241C59.0428 16.5274 59.1888 15.5187 59.1888 14.3978C59.1888 13.3143 59.0428 12.3055 58.7144 11.4088C58.386 10.5121 57.9481 9.72747 57.3277 9.05494C56.7074 8.41978 55.9775 7.8967 55.1017 7.52307C54.226 7.14945 53.2407 7 52.146 7C51.0877 7 50.139 7.18681 49.2997 7.48571C48.4604 7.82197 47.694 8.30768 47.0737 8.94285C46.4533 9.57801 45.979 10.3626 45.6505 11.2967C45.3221 12.2308 45.1397 13.2769 45.1397 14.4351C45.1397 15.5934 45.3221 16.6395 45.6505 17.5736C45.979 18.5077 46.4533 19.2923 47.0737 19.9274C47.694 20.5626 48.4239 21.0483 49.2997 21.3846C50.139 21.6461 51.1242 21.8329 52.146 21.8329ZM48.5698 14.3604C48.5698 13.5758 48.6428 12.9033 48.8253 12.3428C49.0077 11.7824 49.2267 11.3341 49.5551 10.9604C49.8835 10.5868 50.2484 10.3253 50.6863 10.1758C51.1242 9.989 51.6351 9.91427 52.1825 9.91427C52.8028 9.91427 53.3502 10.0264 53.7881 10.2505C54.226 10.4747 54.6274 10.7736 54.9193 11.1846C55.2112 11.5582 55.4302 12.0439 55.5761 12.6044C55.7221 13.1648 55.7951 13.7626 55.7951 14.3978C55.7951 15.0329 55.7221 15.6308 55.5761 16.1912C55.4302 16.7516 55.2112 17.2 54.9193 17.611C54.6274 17.9846 54.2624 18.3209 53.7881 18.545C53.3502 18.7692 52.8028 18.8813 52.1825 18.8813C51.6351 18.8813 51.1242 18.8066 50.6863 18.6198C50.2484 18.4329 49.8835 18.1714 49.5551 17.8351C49.2267 17.4615 49.0077 17.0132 48.8253 16.4527C48.6428 15.8176 48.5698 15.145 48.5698 14.3604ZM64.4799 18.545H68.6398L67.3627 21.534H61.2321V7.14941H64.4799V18.545ZM71.8876 21.534L73.1283 18.5824H78.529L79.7697 21.534H83.2364L77.1059 7.14941H74.7339L68.6034 21.534H71.8876ZM75.8287 11.8197L76.3031 13.2395L77.3978 15.8922H74.2596L75.3543 13.2769L75.8287 11.8197ZM84.7689 7.14941H88.0167V21.534H84.7689V7.14941ZM94.4393 15.9297L96.0084 16.1165L99.986 21.5341H104L99.6211 15.9297L99.1467 15.444C99.1814 15.4306 99.2166 15.4173 99.2521 15.4039C99.5156 15.3042 99.7974 15.1976 100.022 15.033C100.387 14.8088 100.716 14.5099 101.008 14.1736C101.3 13.8374 101.519 13.4264 101.665 12.9407C101.811 12.455 101.92 11.9319 101.92 11.3341C101.92 10.5495 101.774 9.87694 101.446 9.31651C101.117 8.75607 100.716 8.30773 100.168 7.97146C99.8765 7.78465 99.5846 7.6352 99.2561 7.52311C98.9277 7.41102 98.5628 7.29894 98.1979 7.22421C97.833 7.14949 97.4681 7.11212 97.0667 7.07475C96.7019 7.0374 96.337 7.0374 95.9722 7.0374H95.9719H95.9717C95.6798 7.0374 95.315 7.0374 94.9137 7.07475C94.5434 7.07475 94.1731 7.10655 93.7742 7.14081L93.673 7.14948C93.2351 7.18684 92.8337 7.2242 92.4323 7.26157C92.0309 7.29893 91.666 7.3363 91.3376 7.41102L91.1916 7.44838V21.5341H94.4393V15.9297ZM97.7965 13.4264C97.5411 13.5758 97.2491 13.6879 96.8842 13.7253C96.5193 13.8 96.1545 13.8 95.8261 13.8H95.826H94.4393V10.3253H94.6218C94.7677 10.3253 94.9137 10.3253 95.0597 10.2879H95.5705C96.1179 10.2879 96.6288 10.2879 97.0667 10.3627C97.3586 10.4 97.6505 10.5121 97.8695 10.6616C98.0884 10.811 98.2344 10.9605 98.3804 11.222C98.4898 11.4462 98.5628 11.7077 98.5628 11.9319C98.5628 12.3429 98.4898 12.6418 98.3804 12.9033C98.1979 13.0901 98.0154 13.2769 97.7965 13.4264ZM56.5206 34.5709C56.4851 34.5843 56.4499 34.5976 56.4153 34.6109L56.8897 35.134L61.2686 40.7383H57.2546L53.2771 35.3208L51.7079 35.134V40.7383H48.4602V26.6153L48.6062 26.5779C48.9346 26.5032 49.2995 26.4659 49.7009 26.4285L49.7031 26.4283C50.1038 26.391 50.5045 26.3537 50.9416 26.3164L51.0424 26.3078L51.0425 26.3078C51.4416 26.2735 51.8119 26.2417 52.1823 26.2417C52.5837 26.2043 52.9486 26.2043 53.2406 26.2043C53.6055 26.2043 53.9704 26.2043 54.3353 26.2417C54.7367 26.279 55.1016 26.3164 55.4665 26.3911C55.8314 26.4659 56.1963 26.5779 56.5248 26.69C56.8532 26.8021 57.1451 26.9516 57.437 27.1384C57.9844 27.4746 58.3858 27.923 58.7142 28.4834C59.0427 29.0439 59.1886 29.7164 59.1886 30.501C59.1886 31.0988 59.0792 31.6219 58.9332 32.1076C58.7872 32.5933 58.5683 33.0043 58.2763 33.3406C57.9844 33.6768 57.656 33.9757 57.2911 34.1999C57.066 34.3645 56.7843 34.4711 56.5207 34.5708L56.5206 34.5709ZM55.576 31.7713C55.6855 31.5098 55.7584 31.2109 55.7584 30.7999C55.7584 30.5384 55.6855 30.3142 55.6125 30.1274C55.4665 29.8658 55.3206 29.7164 55.1016 29.5669C54.8827 29.4175 54.5907 29.3054 54.2988 29.268C53.8609 29.1933 53.35 29.1933 52.8027 29.1933H52.2918C52.1458 29.2307 51.9999 29.2307 51.8539 29.2307H51.6714V32.7054H53.0581H53.0582C53.3866 32.7054 53.7515 32.7054 54.1163 32.6307C54.4813 32.5933 54.7732 32.4812 55.0286 32.3318C55.2476 32.1823 55.43 31.9955 55.576 31.7713ZM73.0553 28.1846C72.4349 27.5495 71.7051 27.0264 70.8293 26.6528C69.9535 26.2792 68.9683 26.1297 67.8735 26.1297C66.8153 26.1297 65.8665 26.3165 65.0272 26.6154C64.1879 26.9517 63.4216 27.4374 62.8013 28.0726C62.1809 28.7077 61.7065 29.4923 61.3781 30.4264C61.0497 31.3605 60.8672 32.4066 60.8672 33.5649C60.8672 34.7231 61.0497 35.7692 61.3781 36.7033C61.7065 37.6374 62.1809 38.422 62.8013 39.0571C63.4216 39.6923 64.1514 40.178 65.0272 40.5143C65.8665 40.8505 66.8518 41 67.8735 41C68.9683 41 69.9535 40.8132 70.8293 40.4769C71.7051 40.1033 72.4349 39.6176 73.0553 38.9451C73.6756 38.2725 74.1135 37.4879 74.4419 36.5912C74.7704 35.6945 74.9163 34.6857 74.9163 33.5649C74.9163 32.4813 74.7704 31.4726 74.4419 30.5758C74.1135 29.6418 73.6756 28.8198 73.0553 28.1846ZM71.4861 33.5275C71.4861 34.1627 71.4132 34.7604 71.2672 35.3209C71.1212 35.8813 70.9023 36.3297 70.6104 36.7407C70.3184 37.1143 69.9535 37.4506 69.4791 37.6747C69.0412 37.8989 68.4939 38.011 67.8735 38.011C67.3262 38.011 66.8153 37.9363 66.3774 37.7495C65.9395 37.5626 65.5746 37.3011 65.2462 36.9648C64.9177 36.5912 64.6988 36.1429 64.5163 35.5824C64.3339 35.022 64.2609 34.3495 64.2609 33.5649C64.2609 32.7802 64.3339 32.1077 64.5163 31.5473C64.6988 30.9868 64.9177 30.5385 65.2462 30.1649C65.5381 29.7912 65.9395 29.5297 66.3774 29.3802C66.8153 29.1934 67.3262 29.1187 67.8735 29.1187C68.4939 29.1187 69.0412 29.2308 69.4791 29.455C69.917 29.6791 70.3184 29.9781 70.6104 30.389C70.9023 30.7627 71.1212 31.2484 71.2672 31.8088C71.4132 32.2945 71.4861 32.8923 71.4861 33.5275ZM85.3895 36.5537C85.499 36.2175 85.572 35.8065 85.572 35.3208V26.3911H88.6737V35.4702C88.6737 36.4043 88.5277 37.2263 88.2358 37.8988C87.9804 38.6087 87.579 39.1691 87.0681 39.6175C86.5572 40.0658 85.9734 40.4021 85.28 40.6263C84.5867 40.8131 83.8569 40.9252 83.0906 40.9252C82.1783 40.9252 81.339 40.8504 80.6091 40.6263C79.8428 40.4021 79.2225 40.0658 78.7116 39.6548C78.2007 39.2438 77.7993 38.6834 77.5439 38.0482C77.2885 37.4131 77.1425 36.6658 77.1425 35.8438V26.3911H80.3902V35.3208C80.3902 36.2175 80.6092 36.9274 81.0106 37.3383C81.412 37.7493 82.1053 37.9735 83.0541 37.9735C83.4555 37.9735 83.8204 37.9362 84.1488 37.8241C84.4407 37.7493 84.6962 37.5999 84.9151 37.3757C85.1341 37.1515 85.28 36.89 85.3895 36.5537Z" fill="#003154"/>
</g>
<defs>
<clipPath id="clip0_1526_2773">
<rect width="104" height="34" fill="white" transform="translate(0 7)"/>
</clipPath>
</defs>
</svg>
