<svg width="180" height="48" viewBox="0 0 180 48" fill="none" xmlns="http://www.w3.org/2000/svg">
<g clip-path="url(#clip0_1526_2808)">
<path fill-rule="evenodd" clip-rule="evenodd" d="M17.2437 36H0V12H17.2772C21.1017 12 24.1881 15.0667 24.1881 18.8667V29.1333C24.1546 32.9333 21.0681 36 17.2437 36ZM9.39344 26.6667H13.654C14.2914 26.6667 14.7947 26.1667 14.7947 25.5333V22.4333C14.7947 21.8 14.2914 21.3 13.654 21.3H9.39344V26.6667ZM33.4472 12C29.6228 12 26.5363 15.0667 26.5363 18.8333V36H35.9298V33.1333H41.331V36H50.7245V12H33.4472ZM35.9298 24.5667V22.4C35.9298 21.8 36.433 21.3 37.0369 21.3H41.2975V24.5667H35.9298ZM60.7219 21.3L52.8381 36H77.2946V26.7H69.6792L77.563 12H53.14V21.3H60.7219ZM78.0997 36L85.9835 21.3H78.4016V12H102.825L94.9408 26.7H102.556V36H78.0997ZM125 36V26.7H116.445V12H104.972V36H125Z" fill="#003154"/>
</g>
<defs>
<clipPath id="clip0_1526_2808">
<rect width="125" height="24" fill="white" transform="translate(0 12)"/>
</clipPath>
</defs>
</svg>
